<svg xmlns="http://www.w3.org/2000/svg" xmlns:xlink="http://www.w3.org/1999/xlink" width="390" zoomAndPan="magnify" viewBox="0 0 292.5 112.499997" height="150" preserveAspectRatio="xMidYMid meet" version="1.0"><defs><g/><clipPath id="acd9868f32"><path d="M 104.070312 29.625 L 157 29.625 L 157 82.640625 L 104.070312 82.640625 Z M 104.070312 29.625 " clip-rule="nonzero"/></clipPath><clipPath id="b478b5c5c3"><path d="M 123 29.625 L 157 29.625 L 157 66 L 123 66 Z M 123 29.625 " clip-rule="nonzero"/></clipPath><clipPath id="f02a58b02f"><path d="M 104.070312 56 C 104.070312 70.570312 115.878906 82.378906 130.445312 82.378906 C 145.011719 82.378906 156.824219 70.570312 156.824219 56 C 156.824219 41.433594 145.011719 29.625 130.445312 29.625 C 115.878906 29.625 104.070312 41.433594 104.070312 56 Z M 104.070312 56 " clip-rule="nonzero"/></clipPath><clipPath id="3ae9cf3dbd"><path d="M 104.070312 46 L 138 46 L 138 82.640625 L 104.070312 82.640625 Z M 104.070312 46 " clip-rule="nonzero"/></clipPath><clipPath id="5b64017de2"><path d="M 104.070312 56 C 104.070312 70.570312 115.878906 82.378906 130.445312 82.378906 C 145.011719 82.378906 156.824219 70.570312 156.824219 56 C 156.824219 41.433594 145.011719 29.625 130.445312 29.625 C 115.878906 29.625 104.070312 41.433594 104.070312 56 Z M 104.070312 56 " clip-rule="nonzero"/></clipPath></defs><g clip-path="url(#acd9868f32)"><path fill="#ffde59" d="M 156.816406 55.996094 C 156.816406 56.859375 156.773438 57.722656 156.6875 58.582031 C 156.605469 59.441406 156.476562 60.296875 156.308594 61.144531 C 156.140625 61.988281 155.929688 62.828125 155.679688 63.652344 C 155.429688 64.480469 155.136719 65.292969 154.808594 66.089844 C 154.476562 66.886719 154.109375 67.667969 153.703125 68.429688 C 153.292969 69.191406 152.851562 69.929688 152.371094 70.648438 C 151.890625 71.367188 151.375 72.0625 150.828125 72.726562 C 150.28125 73.394531 149.703125 74.035156 149.089844 74.644531 C 148.480469 75.257812 147.839844 75.835938 147.171875 76.382812 C 146.503906 76.933594 145.8125 77.445312 145.09375 77.925781 C 144.375 78.40625 143.636719 78.847656 142.875 79.257812 C 142.113281 79.664062 141.332031 80.03125 140.535156 80.363281 C 139.738281 80.695312 138.925781 80.984375 138.097656 81.234375 C 137.269531 81.484375 136.433594 81.695312 135.585938 81.863281 C 134.742188 82.03125 133.886719 82.160156 133.027344 82.242188 C 132.167969 82.328125 131.304688 82.371094 130.441406 82.371094 C 129.578125 82.371094 128.71875 82.328125 127.855469 82.242188 C 126.996094 82.160156 126.144531 82.03125 125.296875 81.863281 C 124.449219 81.695312 123.613281 81.484375 122.785156 81.234375 C 121.960938 80.984375 121.148438 80.695312 120.351562 80.363281 C 119.550781 80.03125 118.773438 79.664062 118.011719 79.257812 C 117.25 78.847656 116.507812 78.40625 115.789062 77.925781 C 115.070312 77.445312 114.378906 76.933594 113.710938 76.382812 C 113.042969 75.835938 112.40625 75.257812 111.792969 74.644531 C 111.183594 74.035156 110.605469 73.394531 110.054688 72.726562 C 109.507812 72.0625 108.992188 71.367188 108.515625 70.648438 C 108.035156 69.929688 107.589844 69.191406 107.183594 68.429688 C 106.777344 67.667969 106.40625 66.886719 106.078125 66.089844 C 105.746094 65.292969 105.457031 64.480469 105.203125 63.652344 C 104.953125 62.828125 104.746094 61.988281 104.574219 61.144531 C 104.40625 60.296875 104.28125 59.441406 104.195312 58.582031 C 104.113281 57.722656 104.070312 56.859375 104.070312 55.996094 C 104.070312 55.132812 104.113281 54.273438 104.195312 53.414062 C 104.28125 52.554688 104.40625 51.699219 104.574219 50.851562 C 104.746094 50.003906 104.953125 49.167969 105.203125 48.34375 C 105.457031 47.515625 105.746094 46.703125 106.078125 45.90625 C 106.40625 45.105469 106.777344 44.328125 107.183594 43.566406 C 107.589844 42.804688 108.035156 42.0625 108.515625 41.34375 C 108.992188 40.628906 109.507812 39.933594 110.054688 39.265625 C 110.605469 38.597656 111.183594 37.960938 111.792969 37.347656 C 112.40625 36.738281 113.042969 36.160156 113.710938 35.609375 C 114.378906 35.0625 115.070312 34.550781 115.789062 34.070312 C 116.507812 33.589844 117.25 33.144531 118.011719 32.738281 C 118.773438 32.332031 119.550781 31.960938 120.351562 31.632812 C 121.148438 31.300781 121.960938 31.011719 122.785156 30.761719 C 123.613281 30.507812 124.449219 30.300781 125.296875 30.132812 C 126.144531 29.960938 126.996094 29.835938 127.855469 29.75 C 128.71875 29.667969 129.578125 29.625 130.441406 29.625 C 131.304688 29.625 132.167969 29.667969 133.027344 29.75 C 133.886719 29.835938 134.742188 29.960938 135.585938 30.132812 C 136.433594 30.300781 137.269531 30.507812 138.097656 30.761719 C 138.925781 31.011719 139.738281 31.300781 140.535156 31.632812 C 141.332031 31.960938 142.113281 32.332031 142.875 32.738281 C 143.636719 33.144531 144.375 33.589844 145.09375 34.070312 C 145.8125 34.550781 146.503906 35.0625 147.171875 35.609375 C 147.839844 36.160156 148.480469 36.738281 149.089844 37.347656 C 149.703125 37.960938 150.28125 38.597656 150.828125 39.265625 C 151.375 39.933594 151.890625 40.628906 152.371094 41.34375 C 152.851562 42.0625 153.292969 42.804688 153.703125 43.566406 C 154.109375 44.328125 154.476562 45.105469 154.808594 45.90625 C 155.136719 46.703125 155.429688 47.515625 155.679688 48.34375 C 155.929688 49.167969 156.140625 50.003906 156.308594 50.851562 C 156.476562 51.699219 156.605469 52.554688 156.6875 53.414062 C 156.773438 54.273438 156.816406 55.132812 156.816406 55.996094 Z M 156.816406 55.996094 " fill-opacity="1" fill-rule="nonzero"/></g><g fill="#ffde59" fill-opacity="1"><g transform="translate(24.484578, 72.495854)"><g><path d="M 12.40625 -45.21875 C 15.863281 -45.21875 18.441406 -44.203125 20.140625 -42.171875 C 21.847656 -40.148438 22.703125 -37.410156 22.703125 -33.953125 L 22.703125 -10.8125 C 22.703125 -7.945312 22.128906 -5.625 20.984375 -3.84375 C 21.234375 -3.28125 21.570312 -2.90625 22 -2.71875 C 22.425781 -2.53125 23.003906 -2.4375 23.734375 -2.4375 L 24.359375 -2.4375 L 24.359375 1.984375 L 23.53125 1.984375 C 20.800781 1.984375 18.90625 1.023438 17.84375 -0.890625 C 17.113281 -0.460938 16.300781 -0.132812 15.40625 0.09375 C 14.507812 0.332031 13.507812 0.453125 12.40625 0.453125 C 8.957031 0.453125 6.390625 -0.566406 4.703125 -2.609375 C 3.015625 -4.660156 2.171875 -7.394531 2.171875 -10.8125 L 2.171875 -33.953125 C 2.171875 -37.410156 3.015625 -40.148438 4.703125 -42.171875 C 6.390625 -44.203125 8.957031 -45.21875 12.40625 -45.21875 Z M 12.40625 -40.671875 C 10.613281 -40.671875 9.28125 -40.101562 8.40625 -38.96875 C 7.53125 -37.84375 7.09375 -36.257812 7.09375 -34.21875 L 7.09375 -10.546875 C 7.09375 -8.503906 7.53125 -6.914062 8.40625 -5.78125 C 9.28125 -4.65625 10.613281 -4.09375 12.40625 -4.09375 C 14.238281 -4.09375 15.582031 -4.65625 16.4375 -5.78125 C 17.289062 -6.914062 17.71875 -8.503906 17.71875 -10.546875 L 17.71875 -34.21875 C 17.71875 -36.257812 17.289062 -37.84375 16.4375 -38.96875 C 15.582031 -40.101562 14.238281 -40.671875 12.40625 -40.671875 Z M 12.40625 -40.671875 "/></g></g></g><g fill="#ffde59" fill-opacity="1"><g transform="translate(50.186896, 72.495854)"><g><path d="M 12.53125 -44.765625 C 16.070312 -44.765625 18.617188 -43.890625 20.171875 -42.140625 C 21.734375 -40.390625 22.515625 -37.851562 22.515625 -34.53125 L 22.515625 -30.890625 C 22.515625 -28.421875 22.066406 -26.414062 21.171875 -24.875 C 20.273438 -23.34375 18.867188 -22.28125 16.953125 -21.6875 C 18.992188 -21.082031 20.441406 -19.976562 21.296875 -18.375 C 22.148438 -16.78125 22.578125 -14.769531 22.578125 -12.34375 L 22.578125 -5.375 C 22.578125 -4.394531 22.617188 -3.445312 22.703125 -2.53125 C 22.785156 -1.613281 23.039062 -0.769531 23.46875 0 L 18.421875 0 C 18.117188 -0.632812 17.90625 -1.328125 17.78125 -2.078125 C 17.65625 -2.828125 17.59375 -3.945312 17.59375 -5.4375 L 17.59375 -12.46875 C 17.59375 -14.988281 17.023438 -16.726562 15.890625 -17.6875 C 14.765625 -18.644531 13.15625 -19.125 11.0625 -19.125 L 7.546875 -19.125 L 7.546875 0 L 2.5625 0 L 2.5625 -44.765625 Z M 11.25 -23.65625 C 13.257812 -23.65625 14.816406 -24.070312 15.921875 -24.90625 C 17.035156 -25.738281 17.59375 -27.367188 17.59375 -29.796875 L 17.59375 -34.09375 C 17.59375 -36.132812 17.195312 -37.664062 16.40625 -38.6875 C 15.613281 -39.707031 14.28125 -40.21875 12.40625 -40.21875 L 7.546875 -40.21875 L 7.546875 -23.65625 Z M 11.25 -23.65625 "/></g></g></g><g fill="#ffde59" fill-opacity="1"><g transform="translate(75.377711, 72.495854)"><g><path d="M 2.171875 -33.953125 C 2.171875 -37.410156 3.015625 -40.148438 4.703125 -42.171875 C 6.390625 -44.203125 8.957031 -45.21875 12.40625 -45.21875 C 15.863281 -45.21875 18.441406 -44.203125 20.140625 -42.171875 C 21.847656 -40.148438 22.703125 -37.410156 22.703125 -33.953125 L 22.703125 -10.8125 C 22.703125 -7.394531 21.847656 -4.660156 20.140625 -2.609375 C 18.441406 -0.566406 15.863281 0.453125 12.40625 0.453125 C 8.957031 0.453125 6.390625 -0.566406 4.703125 -2.609375 C 3.015625 -4.660156 2.171875 -7.394531 2.171875 -10.8125 Z M 7.09375 -10.546875 C 7.09375 -8.503906 7.53125 -6.914062 8.40625 -5.78125 C 9.28125 -4.65625 10.613281 -4.09375 12.40625 -4.09375 C 14.238281 -4.09375 15.582031 -4.65625 16.4375 -5.78125 C 17.289062 -6.914062 17.71875 -8.503906 17.71875 -10.546875 L 17.71875 -34.21875 C 17.71875 -36.257812 17.289062 -37.84375 16.4375 -38.96875 C 15.582031 -40.101562 14.238281 -40.671875 12.40625 -40.671875 C 10.613281 -40.671875 9.28125 -40.101562 8.40625 -38.96875 C 7.53125 -37.84375 7.09375 -36.257812 7.09375 -34.21875 Z M 7.09375 -10.546875 "/></g></g></g><g fill="#ffde59" fill-opacity="1"><g transform="translate(100.267836, 72.495854)"><g/></g></g><g fill="#ffde59" fill-opacity="1"><g transform="translate(110.177926, 72.495854)"><g/></g></g><g fill="#ffde59" fill-opacity="1"><g transform="translate(120.088016, 72.495854)"><g/></g></g><g fill="#ffde59" fill-opacity="1"><g transform="translate(139.908196, 72.495854)"><g/></g></g><g fill="#ffde59" fill-opacity="1"><g transform="translate(149.818287, 72.495854)"><g/></g></g><g fill="#ffde59" fill-opacity="1"><g transform="translate(159.751757, 72.495854)"><g><path d="M 2.5625 0 L 2.5625 -44.765625 L 7.546875 -44.765625 L 7.546875 -4.546875 L 20.34375 -4.546875 L 20.34375 0 Z M 2.5625 0 "/></g></g></g><g fill="#ffde59" fill-opacity="1"><g transform="translate(181.29823, 72.495854)"><g><path d="M 7.546875 -44.765625 L 7.546875 0 L 2.5625 0 L 2.5625 -44.765625 Z M 7.546875 -44.765625 "/></g></g></g><g fill="#ffde59" fill-opacity="1"><g transform="translate(191.400125, 72.495854)"><g><path d="M 6.96875 0 L 2.5 0 L 2.5 -44.765625 L 8.828125 -44.765625 L 19.1875 -12.40625 L 19.1875 -44.765625 L 23.59375 -44.765625 L 23.59375 0 L 18.421875 0 L 6.96875 -36.203125 Z M 6.96875 0 "/></g></g></g><g fill="#ffde59" fill-opacity="1"><g transform="translate(217.549989, 72.495854)"><g><path d="M 10.171875 -19.4375 L 7.546875 -15.03125 L 7.546875 0 L 2.5625 0 L 2.5625 -44.765625 L 7.546875 -44.765625 L 7.546875 -23.15625 L 19.4375 -44.765625 L 24.5 -44.765625 L 13.171875 -24.359375 L 24.875 0 L 19.765625 0 Z M 10.171875 -19.4375 "/></g></g></g><g fill="#ffde59" fill-opacity="1"><g transform="translate(243.699852, 72.495854)"><g><path d="M 11.953125 -45.21875 C 15.367188 -45.21875 17.882812 -44.203125 19.5 -42.171875 C 21.125 -40.148438 21.9375 -37.429688 21.9375 -34.015625 L 21.9375 -32.8125 L 17.203125 -32.8125 L 17.203125 -34.28125 C 17.203125 -36.320312 16.796875 -37.894531 15.984375 -39 C 15.171875 -40.113281 13.875 -40.671875 12.09375 -40.671875 C 10.300781 -40.671875 9 -40.113281 8.1875 -39 C 7.375 -37.894531 6.96875 -36.34375 6.96875 -34.34375 C 6.96875 -32.675781 7.335938 -31.222656 8.078125 -29.984375 C 8.828125 -28.753906 9.753906 -27.613281 10.859375 -26.5625 C 11.972656 -25.519531 13.179688 -24.5 14.484375 -23.5 C 15.785156 -22.5 16.988281 -21.398438 18.09375 -20.203125 C 19.207031 -19.015625 20.132812 -17.660156 20.875 -16.140625 C 21.625 -14.628906 22 -12.832031 22 -10.75 C 22 -7.332031 21.175781 -4.609375 19.53125 -2.578125 C 17.894531 -0.554688 15.347656 0.453125 11.890625 0.453125 C 8.441406 0.453125 5.90625 -0.554688 4.28125 -2.578125 C 2.664062 -4.609375 1.859375 -7.332031 1.859375 -10.75 L 1.859375 -13.296875 L 6.515625 -13.296875 L 6.515625 -10.484375 C 6.515625 -8.441406 6.941406 -6.863281 7.796875 -5.75 C 8.648438 -4.644531 9.972656 -4.09375 11.765625 -4.09375 C 13.554688 -4.09375 14.878906 -4.644531 15.734375 -5.75 C 16.585938 -6.863281 17.015625 -8.441406 17.015625 -10.484375 C 17.015625 -12.148438 16.640625 -13.585938 15.890625 -14.796875 C 15.140625 -16.015625 14.210938 -17.144531 13.109375 -18.1875 C 12.003906 -19.238281 10.8125 -20.265625 9.53125 -21.265625 C 8.25 -22.265625 7.050781 -23.359375 5.9375 -24.546875 C 4.832031 -25.742188 3.90625 -27.097656 3.15625 -28.609375 C 2.414062 -30.128906 2.046875 -31.929688 2.046875 -34.015625 C 2.046875 -37.472656 2.851562 -40.203125 4.46875 -42.203125 C 6.09375 -44.210938 8.585938 -45.21875 11.953125 -45.21875 Z M 11.953125 -45.21875 "/></g></g></g><g clip-path="url(#b478b5c5c3)"><g clip-path="url(#f02a58b02f)"><path fill="#000000" d="M 132.808594 65.925781 C 129.636719 65.925781 126.53125 64.765625 124.191406 62.421875 C 122.882812 61.117188 122.882812 59.003906 124.1875 57.699219 C 125.492188 56.394531 127.605469 56.394531 128.90625 57.699219 C 131.1875 59.972656 135.144531 59.726562 137.730469 57.140625 L 148.03125 46.839844 C 149.410156 45.46875 150.195312 43.671875 150.195312 41.917969 C 150.195312 40.871094 149.917969 39.351562 148.59375 38.023438 C 147.171875 36.601562 145.542969 36.367188 144.40625 36.425781 C 142.726562 36.5 141.082031 37.265625 139.773438 38.574219 L 133.863281 44.480469 C 132.480469 43.101562 126.808594 42.085938 125.269531 43.625 L 135.042969 33.855469 C 137.53125 31.367188 140.738281 29.914062 144.085938 29.75 C 147.574219 29.589844 150.851562 30.847656 153.304688 33.300781 C 155.605469 35.597656 156.871094 38.65625 156.871094 41.921875 C 156.867188 45.433594 155.367188 48.949219 152.742188 51.5625 L 142.445312 61.863281 C 139.753906 64.566406 136.242188 65.925781 132.808594 65.925781 Z M 132.808594 65.925781 " fill-opacity="1" fill-rule="nonzero"/></g></g><g clip-path="url(#3ae9cf3dbd)"><g clip-path="url(#5b64017de2)"><path fill="#000000" d="M 128.136719 46.339844 C 131.308594 46.339844 134.414062 47.496094 136.757812 49.84375 C 138.066406 51.148438 138.0625 53.257812 136.757812 54.5625 C 135.457031 55.867188 133.34375 55.867188 132.039062 54.5625 C 129.757812 52.289062 125.800781 52.539062 123.214844 55.121094 L 112.914062 65.421875 C 111.539062 66.792969 110.75 68.589844 110.75 70.34375 C 110.75 71.386719 111.027344 72.910156 112.355469 74.238281 C 113.773438 75.65625 115.402344 75.894531 116.542969 75.839844 C 118.222656 75.761719 119.867188 74.996094 121.175781 73.6875 L 127.078125 67.785156 C 128.460938 69.164062 134.132812 70.175781 135.671875 68.636719 L 125.898438 78.40625 C 123.414062 80.894531 120.207031 82.351562 116.859375 82.511719 C 113.367188 82.675781 110.09375 81.417969 107.636719 78.960938 C 105.335938 76.667969 104.074219 73.605469 104.074219 70.34375 C 104.074219 66.828125 105.574219 63.3125 108.199219 60.699219 L 118.496094 50.402344 C 121.191406 47.703125 124.707031 46.339844 128.136719 46.339844 Z M 128.136719 46.339844 " fill-opacity="1" fill-rule="nonzero"/></g></g></svg>