<svg xmlns="http://www.w3.org/2000/svg" xmlns:xlink="http://www.w3.org/1999/xlink" width="150" zoomAndPan="magnify" viewBox="0 0 112.5 112.499997" height="150" preserveAspectRatio="xMidYMid meet" version="1.0"><defs><clipPath id="b580fe81f7"><path d="M 0 0 L 112.003906 0 L 112.003906 112.003906 L 0 112.003906 Z M 0 0 " clip-rule="nonzero"/></clipPath><clipPath id="739196f524"><path d="M 5.476562 5.476562 L 106.527344 5.476562 L 106.527344 106.527344 L 5.476562 106.527344 Z M 5.476562 5.476562 " clip-rule="nonzero"/></clipPath><clipPath id="df0e03f0cd"><path d="M 56 5.476562 C 28.097656 5.476562 5.476562 28.097656 5.476562 56 C 5.476562 83.90625 28.097656 106.527344 56 106.527344 C 83.90625 106.527344 106.527344 83.90625 106.527344 56 C 106.527344 28.097656 83.90625 5.476562 56 5.476562 Z M 56 5.476562 " clip-rule="nonzero"/></clipPath><clipPath id="66133d5bd8"><path d="M 21.660156 50 L 90.351562 50 L 90.351562 93.730469 L 21.660156 93.730469 Z M 21.660156 50 " clip-rule="nonzero"/></clipPath><clipPath id="4be8b9fe33"><path d="M 50 18.3125 L 62 18.3125 L 62 31 L 50 31 Z M 50 18.3125 " clip-rule="nonzero"/></clipPath></defs><g clip-path="url(#b580fe81f7)"><path fill="#ffffff" d="M 0 0 L 112.003906 0 L 112.003906 112.003906 L 0 112.003906 Z M 0 0 " fill-opacity="1" fill-rule="nonzero"/><path fill="#ffffff" d="M 0 0 L 112.003906 0 L 112.003906 112.003906 L 0 112.003906 Z M 0 0 " fill-opacity="1" fill-rule="nonzero"/></g><g clip-path="url(#739196f524)"><g clip-path="url(#df0e03f0cd)"><path fill="#ffde59" d="M 5.476562 5.476562 L 106.527344 5.476562 L 106.527344 106.527344 L 5.476562 106.527344 Z M 5.476562 5.476562 " fill-opacity="1" fill-rule="nonzero"/></g></g><path fill="#000000" d="M 25.59375 55.347656 L 38.566406 55.347656 C 38.507812 54.523438 38.6875 53.703125 39.039062 52.996094 L 26.765625 52.996094 L 26.765625 28.324219 L 47.960938 28.324219 C 48.019531 27.503906 48.195312 26.738281 48.492188 25.976562 L 25.59375 25.976562 C 24.945312 25.976562 24.417969 26.503906 24.417969 27.152344 L 24.417969 54.171875 C 24.417969 54.816406 24.945312 55.347656 25.59375 55.347656 Z M 25.59375 55.347656 " fill-opacity="1" fill-rule="nonzero"/><path fill="#000000" d="M 85.480469 28.324219 L 85.480469 52.996094 L 73.152344 52.996094 C 73.503906 53.703125 73.679688 54.523438 73.621094 55.347656 L 86.65625 55.347656 C 87.300781 55.347656 87.828125 54.816406 87.828125 54.171875 L 87.828125 27.152344 C 87.828125 26.503906 87.300781 25.976562 86.65625 25.976562 L 63.816406 25.976562 C 64.109375 26.738281 64.285156 27.503906 64.34375 28.324219 Z M 85.480469 28.324219 " fill-opacity="1" fill-rule="nonzero"/><g clip-path="url(#66133d5bd8)"><path fill="#000000" d="M 89.296875 71.03125 L 84.539062 67.210938 C 83.894531 66.742188 83.074219 66.566406 82.367188 66.800781 C 81.605469 67.035156 81.019531 67.621094 80.84375 68.386719 L 78.316406 77.550781 L 74.792969 77.550781 L 73.972656 75.789062 L 75.617188 75.789062 C 76.671875 75.789062 77.613281 75.082031 77.90625 74.023438 L 80.429688 64.039062 C 80.664062 63.160156 80.371094 62.277344 79.667969 61.691406 L 75.5 58.105469 C 74.851562 57.578125 74.03125 57.402344 73.269531 57.636719 C 72.503906 57.871094 71.917969 58.519531 71.683594 59.339844 L 70.214844 66.09375 L 69.6875 66.210938 L 68.570312 63.6875 C 69.097656 63.394531 69.511719 62.804688 69.6875 62.160156 L 71.214844 55.464844 C 71.390625 54.699219 71.152344 53.9375 70.683594 53.347656 L 69.039062 51.703125 C 68.453125 51.058594 67.574219 50.765625 66.691406 51 C 65.871094 51.234375 65.222656 51.878906 64.988281 52.761719 L 64.519531 54.875 L 64.285156 54.289062 C 63.933594 53.582031 63.285156 53.113281 62.582031 52.996094 L 62.582031 52.9375 L 49.546875 52.9375 L 49.546875 52.996094 C 48.84375 53.171875 48.257812 53.640625 47.902344 54.289062 L 47.609375 54.992188 L 47.082031 52.703125 C 46.90625 51.820312 46.257812 51.175781 45.378906 50.941406 C 44.558594 50.707031 43.617188 51 43.03125 51.644531 L 41.445312 53.347656 C 40.917969 53.9375 40.742188 54.699219 40.917969 55.464844 L 42.441406 62.160156 C 42.621094 62.863281 43.03125 63.394531 43.617188 63.6875 L 42.503906 66.210938 L 41.855469 66.035156 L 40.328125 59.339844 C 40.152344 58.519531 39.566406 57.929688 38.746094 57.695312 C 37.980469 57.460938 37.101562 57.636719 36.511719 58.164062 L 32.34375 61.75 C 31.699219 62.335938 31.40625 63.21875 31.582031 64.097656 L 34.105469 74.082031 C 34.339844 75.140625 35.28125 75.847656 36.394531 75.847656 L 38.15625 75.847656 L 37.335938 77.609375 L 33.695312 77.609375 L 31.171875 68.445312 C 30.933594 67.679688 30.40625 67.09375 29.644531 66.859375 C 28.878906 66.625 28.058594 66.742188 27.472656 67.269531 L 22.714844 71.089844 C 22.011719 71.675781 21.660156 72.617188 21.894531 73.496094 L 25.300781 86.476562 C 25.59375 87.535156 26.53125 88.238281 27.589844 88.238281 L 32.636719 88.238281 L 30.996094 91.882812 C 30.699219 92.46875 30.996094 93.175781 31.582031 93.410156 C 32.167969 93.703125 32.875 93.410156 33.109375 92.820312 L 50.074219 55.347656 L 62.171875 55.347656 L 79.140625 92.878906 C 79.316406 93.292969 79.785156 93.585938 80.195312 93.585938 C 80.371094 93.585938 80.546875 93.527344 80.664062 93.46875 C 81.253906 93.175781 81.546875 92.527344 81.253906 91.941406 L 79.609375 88.300781 L 84.421875 88.300781 C 85.480469 88.300781 86.417969 87.59375 86.714844 86.535156 L 90.117188 73.554688 C 90.351562 72.558594 90.058594 71.617188 89.296875 71.03125 Z M 43.265625 54.992188 L 44.851562 53.289062 L 45.671875 56.933594 C 45.789062 57.34375 45.964844 57.753906 46.320312 58.046875 L 44.792969 61.453125 Z M 36.453125 73.496094 L 33.929688 63.511719 L 38.097656 59.925781 L 39.625 66.625 C 39.859375 67.445312 40.503906 68.09375 41.328125 68.328125 L 41.5625 68.386719 L 39.273438 73.496094 Z M 27.707031 85.832031 L 24.300781 72.851562 L 29.058594 69.03125 L 31.582031 78.195312 C 31.875 79.195312 32.8125 79.898438 33.871094 79.898438 L 36.394531 79.898438 L 33.753906 85.773438 L 27.707031 85.773438 Z M 70.800781 68.386719 C 71.625 68.152344 72.269531 67.503906 72.503906 66.683594 L 74.03125 59.988281 L 78.199219 63.570312 L 75.675781 73.554688 L 72.972656 73.554688 L 70.683594 68.445312 Z M 66.515625 56.933594 L 67.335938 53.289062 L 68.921875 54.992188 L 67.457031 61.277344 L 65.929688 57.929688 C 66.222656 57.695312 66.398438 57.34375 66.515625 56.933594 Z M 84.421875 85.832031 L 78.550781 85.832031 L 75.910156 79.957031 L 78.316406 79.957031 C 79.375 79.957031 80.3125 79.253906 80.605469 78.253906 L 83.132812 69.089844 L 87.886719 72.910156 Z M 84.421875 85.832031 " fill-opacity="1" fill-rule="nonzero"/></g><g clip-path="url(#4be8b9fe33)"><path fill="#000000" d="M 51.425781 30.085938 L 60.820312 30.085938 C 61.464844 30.085938 61.996094 29.558594 61.996094 28.914062 C 61.996094 26.09375 60 23.683594 57.296875 23.15625 L 57.296875 19.515625 C 57.296875 18.867188 56.769531 18.339844 56.125 18.339844 C 55.476562 18.339844 54.949219 18.867188 54.949219 19.515625 L 54.949219 23.15625 C 52.25 23.683594 50.253906 26.09375 50.253906 28.914062 C 50.253906 29.558594 50.78125 30.085938 51.425781 30.085938 Z M 56.125 25.386719 C 57.648438 25.386719 58.941406 26.386719 59.46875 27.738281 L 52.777344 27.738281 C 53.304688 26.386719 54.597656 25.386719 56.125 25.386719 Z M 56.125 25.386719 " fill-opacity="1" fill-rule="nonzero"/></g><path fill="#000000" d="M 54.949219 32.4375 L 54.949219 34.785156 C 54.949219 35.433594 55.476562 35.960938 56.125 35.960938 C 56.769531 35.960938 57.296875 35.433594 57.296875 34.785156 L 57.296875 32.4375 C 57.296875 31.792969 56.769531 31.261719 56.125 31.261719 C 55.476562 31.261719 54.949219 31.792969 54.949219 32.4375 Z M 54.949219 32.4375 " fill-opacity="1" fill-rule="nonzero"/><path fill="#000000" d="M 50.015625 35.023438 C 50.3125 35.023438 50.605469 34.90625 50.839844 34.667969 L 52.484375 33.023438 C 52.953125 32.554688 52.953125 31.851562 52.484375 31.378906 C 52.011719 30.910156 51.308594 30.910156 50.839844 31.378906 L 49.195312 33.023438 C 48.726562 33.496094 48.726562 34.199219 49.195312 34.667969 C 49.429688 34.90625 49.722656 35.023438 50.015625 35.023438 Z M 50.015625 35.023438 " fill-opacity="1" fill-rule="nonzero"/><path fill="#000000" d="M 59.765625 31.378906 C 59.292969 31.851562 59.292969 32.554688 59.765625 33.023438 L 61.40625 34.667969 C 61.644531 34.90625 61.9375 35.023438 62.230469 35.023438 C 62.523438 35.023438 62.816406 34.90625 63.050781 34.667969 C 63.519531 34.199219 63.519531 33.496094 63.050781 33.023438 L 61.40625 31.378906 C 60.9375 30.910156 60.234375 30.910156 59.765625 31.378906 Z M 59.765625 31.378906 " fill-opacity="1" fill-rule="nonzero"/></svg>