<svg xmlns="http://www.w3.org/2000/svg" xmlns:xlink="http://www.w3.org/1999/xlink" width="150" zoomAndPan="magnify" viewBox="0 0 112.5 112.499997" height="150" preserveAspectRatio="xMidYMid meet" version="1.0"><defs><clipPath id="7a404ccc22"><path d="M 0 0 L 112.003906 0 L 112.003906 112.003906 L 0 112.003906 Z M 0 0 " clip-rule="nonzero"/></clipPath><clipPath id="2dd746b9f5"><path d="M 5.476562 5.476562 L 106.527344 5.476562 L 106.527344 106.527344 L 5.476562 106.527344 Z M 5.476562 5.476562 " clip-rule="nonzero"/></clipPath><clipPath id="9cc3130eed"><path d="M 56 5.476562 C 28.097656 5.476562 5.476562 28.097656 5.476562 56 C 5.476562 83.90625 28.097656 106.527344 56 106.527344 C 83.90625 106.527344 106.527344 83.90625 106.527344 56 C 106.527344 28.097656 83.90625 5.476562 56 5.476562 Z M 56 5.476562 " clip-rule="nonzero"/></clipPath><clipPath id="ac192ce826"><path d="M 42 21.09375 L 52 21.09375 L 52 30 L 42 30 Z M 42 21.09375 " clip-rule="nonzero"/></clipPath><clipPath id="5b8c6c3eab"><path d="M 31.042969 29 L 63 29 L 63 34 L 31.042969 34 Z M 31.042969 29 " clip-rule="nonzero"/></clipPath><clipPath id="28eb7c3210"><path d="M 54 48 L 81.070312 48 L 81.070312 91 L 54 91 Z M 54 48 " clip-rule="nonzero"/></clipPath></defs><g clip-path="url(#7a404ccc22)"><path fill="#ffffff" d="M 0 0 L 112.003906 0 L 112.003906 112.003906 L 0 112.003906 Z M 0 0 " fill-opacity="1" fill-rule="nonzero"/><path fill="#ffffff" d="M 0 0 L 112.003906 0 L 112.003906 112.003906 L 0 112.003906 Z M 0 0 " fill-opacity="1" fill-rule="nonzero"/></g><g clip-path="url(#2dd746b9f5)"><g clip-path="url(#9cc3130eed)"><path fill="#ffde59" d="M 5.476562 5.476562 L 106.527344 5.476562 L 106.527344 106.527344 L 5.476562 106.527344 Z M 5.476562 5.476562 " fill-opacity="1" fill-rule="nonzero"/></g></g><g clip-path="url(#ac192ce826)"><path fill="#000000" d="M 51.171875 25.515625 C 51.171875 25.804688 51.144531 26.085938 51.089844 26.367188 C 51.035156 26.648438 50.953125 26.921875 50.84375 27.183594 C 50.734375 27.449219 50.601562 27.703125 50.441406 27.9375 C 50.28125 28.175781 50.101562 28.398438 49.902344 28.601562 C 49.699219 28.800781 49.480469 28.984375 49.242188 29.140625 C 49.003906 29.300781 48.753906 29.4375 48.488281 29.546875 C 48.226562 29.65625 47.953125 29.738281 47.675781 29.792969 C 47.394531 29.847656 47.113281 29.878906 46.828125 29.878906 C 46.542969 29.878906 46.257812 29.847656 45.980469 29.792969 C 45.699219 29.738281 45.425781 29.65625 45.164062 29.546875 C 44.898438 29.4375 44.648438 29.300781 44.410156 29.140625 C 44.175781 28.984375 43.953125 28.800781 43.753906 28.601562 C 43.550781 28.398438 43.371094 28.175781 43.210938 27.9375 C 43.054688 27.703125 42.917969 27.449219 42.8125 27.183594 C 42.703125 26.921875 42.617188 26.648438 42.5625 26.367188 C 42.507812 26.085938 42.480469 25.804688 42.480469 25.515625 C 42.480469 25.230469 42.507812 24.945312 42.5625 24.667969 C 42.617188 24.386719 42.703125 24.113281 42.8125 23.847656 C 42.917969 23.582031 43.054688 23.332031 43.210938 23.09375 C 43.371094 22.855469 43.550781 22.636719 43.753906 22.433594 C 43.953125 22.230469 44.175781 22.050781 44.410156 21.890625 C 44.648438 21.734375 44.898438 21.597656 45.164062 21.488281 C 45.425781 21.378906 45.699219 21.296875 45.980469 21.242188 C 46.257812 21.183594 46.542969 21.15625 46.828125 21.15625 C 47.113281 21.15625 47.394531 21.183594 47.675781 21.242188 C 47.953125 21.296875 48.226562 21.378906 48.488281 21.488281 C 48.753906 21.597656 49.003906 21.734375 49.242188 21.890625 C 49.480469 22.050781 49.699219 22.230469 49.902344 22.433594 C 50.101562 22.636719 50.28125 22.855469 50.441406 23.09375 C 50.601562 23.332031 50.734375 23.582031 50.84375 23.847656 C 50.953125 24.113281 51.035156 24.386719 51.089844 24.667969 C 51.144531 24.945312 51.171875 25.230469 51.171875 25.515625 Z M 51.171875 25.515625 " fill-opacity="1" fill-rule="nonzero"/></g><g clip-path="url(#5b8c6c3eab)"><path fill="#000000" d="M 46.828125 31.761719 C 48.46875 31.761719 49.957031 32.417969 51.050781 33.480469 L 51.0625 33.363281 L 61.425781 32.253906 C 62.109375 32.183594 62.601562 31.570312 62.53125 30.882812 C 62.457031 30.199219 61.84375 29.703125 61.164062 29.777344 L 49.738281 31 L 43.914062 31 L 32.488281 29.777344 C 31.808594 29.703125 31.195312 30.199219 31.125 30.882812 C 31.050781 31.570312 31.542969 32.183594 32.226562 32.253906 L 42.589844 33.363281 L 42.601562 33.480469 C 43.695312 32.417969 45.1875 31.761719 46.828125 31.761719 Z M 46.828125 31.761719 " fill-opacity="1" fill-rule="nonzero"/></g><path fill="#000000" d="M 51.871094 54.769531 C 50.652344 54.769531 49.621094 53.894531 49.421875 52.683594 C 49.378906 52.417969 49.378906 52.152344 49.417969 51.902344 C 49.304688 51.867188 49.191406 51.828125 49.082031 51.777344 C 48.558594 51.527344 48.164062 51.089844 47.972656 50.542969 C 47.777344 50 47.808594 49.410156 48.054688 48.886719 C 49.0625 46.769531 49.207031 45.511719 49.203125 44.953125 C 49.203125 44.929688 49.203125 44.914062 49.199219 44.894531 L 44.191406 44.894531 C 44.191406 44.914062 44.1875 44.929688 44.1875 44.953125 C 44.1875 45.511719 44.332031 46.769531 45.339844 48.886719 C 45.585938 49.410156 45.617188 50 45.421875 50.542969 C 45.226562 51.089844 44.835938 51.527344 44.3125 51.773438 C 44.28125 51.789062 44.25 51.800781 44.21875 51.8125 C 44.273438 52.09375 44.28125 52.386719 44.230469 52.683594 C 44.03125 53.894531 43.003906 54.769531 41.78125 54.769531 C 41.644531 54.769531 41.507812 54.757812 41.375 54.734375 C 40.929688 54.660156 40.511719 54.585938 40.109375 54.511719 L 40.109375 62.878906 L 33.886719 87.039062 C 33.460938 88.6875 34.449219 90.367188 36.09375 90.792969 C 37.734375 91.21875 39.410156 90.230469 39.832031 88.582031 L 45.703125 65.78125 L 47.949219 65.78125 L 53.820312 88.582031 C 54.242188 90.230469 55.917969 91.21875 57.558594 90.792969 C 59.203125 90.367188 60.191406 88.6875 59.765625 87.039062 L 53.542969 62.878906 L 53.542969 54.511719 C 53.140625 54.585938 52.722656 54.660156 52.277344 54.734375 C 52.144531 54.757812 52.007812 54.769531 51.871094 54.769531 Z M 51.871094 54.769531 " fill-opacity="1" fill-rule="nonzero"/><path fill="#000000" d="M 41.691406 41.136719 C 41.382812 41.457031 41.09375 41.851562 40.863281 42.320312 C 40.496094 43.046875 40.289062 43.941406 40.289062 44.949219 C 40.292969 46.285156 40.636719 47.828125 41.421875 49.6875 C 41.671875 49.730469 41.921875 49.777344 42.1875 49.820312 C 43.089844 49.96875 43.800781 50.597656 44.105469 51.402344 C 44.113281 51.398438 44.121094 51.398438 44.132812 51.390625 C 45 50.980469 45.367188 49.9375 44.957031 49.070312 C 44.03125 47.117188 43.761719 45.773438 43.765625 44.949219 C 43.769531 44.40625 43.871094 44.085938 43.972656 43.875 C 44.078125 43.667969 44.203125 43.53125 44.335938 43.433594 C 43.246094 42.941406 42.328125 42.140625 41.691406 41.136719 Z M 41.691406 41.136719 " fill-opacity="1" fill-rule="nonzero"/><path fill="#000000" d="M 51.46875 49.820312 C 51.632812 49.792969 51.792969 49.765625 51.949219 49.738281 C 52.753906 47.855469 53.101562 46.300781 53.105469 44.949219 C 53.105469 43.941406 52.894531 43.046875 52.53125 42.320312 C 52.335938 41.925781 52.101562 41.589844 51.851562 41.304688 C 51.1875 42.277344 50.246094 43.050781 49.148438 43.507812 C 49.164062 43.523438 49.183594 43.539062 49.199219 43.558594 C 49.386719 43.773438 49.609375 44.058594 49.625 44.949219 C 49.628906 45.773438 49.363281 47.117188 48.4375 49.070312 C 48.023438 49.9375 48.394531 50.980469 49.261719 51.394531 C 49.34375 51.433594 49.429688 51.460938 49.519531 51.488281 C 49.800781 50.640625 50.53125 49.976562 51.46875 49.820312 Z M 51.46875 49.820312 " fill-opacity="1" fill-rule="nonzero"/><path fill="#000000" d="M 33.945312 51.78125 C 34.710938 52.464844 35.558594 52.8125 36.746094 53.199219 C 37.929688 53.570312 39.453125 53.910156 41.457031 54.242188 C 41.566406 54.261719 41.675781 54.269531 41.78125 54.269531 C 42.738281 54.269531 43.578125 53.578125 43.742188 52.601562 C 43.917969 51.515625 43.1875 50.492188 42.105469 50.3125 C 40.21875 50 38.84375 49.679688 37.933594 49.394531 C 37.476562 49.253906 37.136719 49.117188 36.917969 49.011719 C 36.8125 48.957031 36.734375 48.914062 36.6875 48.882812 C 36.6875 48.882812 36.6875 48.882812 36.683594 48.882812 C 36.945312 48.675781 37.117188 48.554688 37.132812 48.5625 C 37.269531 48.628906 37.566406 48.757812 38.078125 48.917969 C 38.519531 49.058594 39.054688 49.195312 39.664062 49.335938 C 39.816406 49.292969 39.964844 49.25 40.109375 49.214844 L 40.109375 49.429688 C 40.371094 49.488281 40.644531 49.542969 40.929688 49.597656 C 40.257812 47.945312 39.910156 46.484375 39.875 45.160156 C 39.246094 45.3125 38.40625 45.53125 37.542969 45.8125 C 36.675781 46.09375 35.792969 46.421875 34.988281 46.878906 C 34.582031 47.117188 34.1875 47.375 33.804688 47.78125 C 33.613281 47.988281 33.421875 48.234375 33.265625 48.558594 C 33.109375 48.875 32.992188 49.285156 32.992188 49.722656 C 32.992188 50.148438 33.109375 50.585938 33.292969 50.933594 C 33.429688 51.199219 33.597656 51.421875 33.773438 51.609375 C 33.777344 51.609375 33.777344 51.605469 33.777344 51.605469 C 33.832031 51.664062 33.886719 51.722656 33.945312 51.78125 Z M 33.945312 51.78125 " fill-opacity="1" fill-rule="nonzero"/><path fill="#000000" d="M 59.707031 51.78125 C 59.769531 51.722656 59.820312 51.664062 59.875 51.605469 C 59.875 51.605469 59.875 51.609375 59.878906 51.609375 C 60.054688 51.421875 60.222656 51.199219 60.359375 50.933594 C 60.542969 50.585938 60.660156 50.148438 60.660156 49.722656 C 60.660156 49.285156 60.542969 48.875 60.386719 48.558594 C 60.230469 48.234375 60.039062 47.988281 59.847656 47.78125 C 59.464844 47.375 59.070312 47.117188 58.664062 46.878906 C 57.859375 46.421875 56.976562 46.09375 56.109375 45.8125 C 55.121094 45.492188 54.164062 45.25 53.519531 45.101562 C 53.492188 46.453125 53.136719 47.953125 52.441406 49.648438 C 52.828125 49.578125 53.195312 49.503906 53.542969 49.429688 L 53.542969 49.214844 C 53.6875 49.25 53.835938 49.292969 53.988281 49.335938 C 54.597656 49.195312 55.132812 49.058594 55.574219 48.917969 C 56.085938 48.757812 56.382812 48.628906 56.519531 48.5625 C 56.535156 48.554688 56.707031 48.675781 56.96875 48.882812 C 56.964844 48.882812 56.96875 48.882812 56.964844 48.882812 C 56.917969 48.914062 56.839844 48.957031 56.734375 49.011719 C 56.515625 49.117188 56.175781 49.253906 55.722656 49.394531 C 54.808594 49.679688 53.433594 50 51.546875 50.3125 C 50.464844 50.492188 49.734375 51.515625 49.910156 52.601562 C 50.074219 53.578125 50.914062 54.269531 51.871094 54.269531 C 51.976562 54.269531 52.085938 54.261719 52.195312 54.242188 C 54.199219 53.910156 55.722656 53.570312 56.90625 53.199219 C 58.09375 52.8125 58.941406 52.464844 59.707031 51.78125 Z M 59.707031 51.78125 " fill-opacity="1" fill-rule="nonzero"/><path fill="#000000" d="M 52.414062 37.867188 C 52.414062 38.234375 52.378906 38.597656 52.308594 38.960938 C 52.238281 39.320312 52.128906 39.671875 51.988281 40.011719 C 51.847656 40.351562 51.675781 40.675781 51.472656 40.980469 C 51.269531 41.285156 51.039062 41.570312 50.777344 41.832031 C 50.519531 42.089844 50.238281 42.324219 49.929688 42.527344 C 49.625 42.730469 49.304688 42.90625 48.964844 43.046875 C 48.625 43.1875 48.277344 43.292969 47.917969 43.363281 C 47.558594 43.4375 47.195312 43.472656 46.828125 43.472656 C 46.460938 43.472656 46.097656 43.4375 45.734375 43.363281 C 45.375 43.292969 45.027344 43.1875 44.6875 43.046875 C 44.347656 42.90625 44.027344 42.730469 43.722656 42.527344 C 43.417969 42.324219 43.132812 42.089844 42.875 41.832031 C 42.613281 41.570312 42.382812 41.285156 42.179688 40.980469 C 41.976562 40.675781 41.804688 40.351562 41.664062 40.011719 C 41.523438 39.671875 41.417969 39.320312 41.34375 38.960938 C 41.273438 38.597656 41.238281 38.234375 41.238281 37.867188 C 41.238281 37.5 41.273438 37.132812 41.34375 36.773438 C 41.417969 36.410156 41.523438 36.0625 41.664062 35.722656 C 41.804688 35.382812 41.976562 35.058594 42.179688 34.753906 C 42.382812 34.445312 42.613281 34.164062 42.875 33.902344 C 43.132812 33.640625 43.417969 33.410156 43.722656 33.207031 C 44.027344 33 44.347656 32.828125 44.6875 32.6875 C 45.027344 32.546875 45.375 32.441406 45.734375 32.367188 C 46.097656 32.296875 46.460938 32.261719 46.828125 32.261719 C 47.195312 32.261719 47.558594 32.296875 47.917969 32.367188 C 48.277344 32.441406 48.625 32.546875 48.964844 32.6875 C 49.304688 32.828125 49.625 33 49.929688 33.207031 C 50.238281 33.410156 50.519531 33.640625 50.777344 33.902344 C 51.039062 34.164062 51.269531 34.445312 51.472656 34.753906 C 51.675781 35.058594 51.847656 35.382812 51.988281 35.722656 C 52.128906 36.0625 52.238281 36.410156 52.308594 36.773438 C 52.378906 37.132812 52.414062 37.5 52.414062 37.867188 Z M 52.414062 37.867188 " fill-opacity="1" fill-rule="nonzero"/><g clip-path="url(#28eb7c3210)"><path fill="#000000" d="M 75.367188 68.84375 C 74.972656 69.152344 74.5 69.316406 74 69.316406 C 73.300781 69.316406 72.65625 68.996094 72.230469 68.445312 C 71.863281 67.972656 71.703125 67.382812 71.78125 66.789062 C 71.855469 66.195312 72.15625 65.664062 72.628906 65.300781 C 74.179688 64.09375 75.351562 62.882812 76.105469 61.703125 C 76.625 60.886719 76.980469 59.480469 77.074219 59.074219 C 76.613281 57.449219 76.078125 55.890625 75.457031 54.484375 C 76.019531 54.992188 76.496094 55.546875 76.851562 56.128906 C 77.339844 56.941406 77.605469 57.78125 77.605469 58.695312 C 77.605469 58.789062 77.605469 58.886719 77.597656 58.984375 C 77.539062 59.855469 77.246094 60.839844 76.523438 61.96875 C 75.804688 63.097656 74.648438 64.359375 72.933594 65.695312 C 72.171875 66.28125 72.035156 67.378906 72.621094 68.140625 C 72.964844 68.585938 73.480469 68.816406 74 68.816406 C 74.371094 68.816406 74.746094 68.699219 75.0625 68.453125 L 75.0625 68.449219 C 77.019531 66.929688 78.457031 65.402344 79.449219 63.855469 C 80.441406 62.308594 80.972656 60.730469 81.066406 59.203125 C 81.066406 59.203125 81.066406 59.199219 81.066406 59.195312 C 81.078125 59.027344 81.085938 58.859375 81.085938 58.695312 C 81.085938 57.078125 80.59375 55.582031 79.820312 54.3125 C 78.652344 52.40625 76.890625 50.964844 74.992188 49.960938 C 73.085938 48.964844 71.03125 48.394531 69.101562 48.386719 C 66.636719 48.398438 64.441406 49.320312 62.492188 50.117188 C 61.96875 50.339844 61.460938 50.550781 60.980469 50.738281 C 60.929688 50.886719 60.871094 51.03125 60.800781 51.164062 C 60.613281 51.527344 60.367188 51.847656 60.046875 52.144531 C 60.042969 52.144531 60.042969 52.148438 60.039062 52.148438 C 60.039062 52.148438 60.039062 52.152344 60.039062 52.152344 C 60.015625 52.171875 59.992188 52.191406 59.96875 52.210938 C 59.929688 52.242188 59.894531 52.277344 59.855469 52.304688 C 59.089844 52.929688 58.238281 53.289062 57.054688 53.675781 C 56.414062 53.875 55.679688 54.066406 54.839844 54.25 C 55.761719 54.828125 56.8125 55.085938 57.785156 55.074219 C 59.714844 55.046875 61.449219 54.320312 63.152344 53.613281 C 59.28125 61.449219 58.449219 75.53125 58.449219 75.53125 L 63.59375 75.53125 L 63.59375 88.703125 C 63.59375 89.949219 64.601562 90.957031 65.839844 90.957031 C 67.082031 90.957031 68.089844 89.949219 68.089844 88.703125 L 68.089844 75.53125 L 70.113281 75.53125 L 70.113281 88.703125 C 70.113281 89.949219 71.121094 90.957031 72.363281 90.957031 C 73.605469 90.957031 74.609375 89.949219 74.609375 88.703125 L 74.609375 75.53125 L 79.753906 75.53125 C 79.753906 75.53125 79.492188 71.105469 78.582031 65.835938 C 77.699219 66.859375 76.625 67.867188 75.367188 68.84375 Z M 75.367188 68.84375 " fill-opacity="1" fill-rule="nonzero"/></g><path fill="#000000" d="M 70.085938 37.171875 C 70.410156 37.25 70.722656 37.355469 71.023438 37.492188 C 71.328125 37.628906 71.613281 37.796875 71.882812 37.988281 C 72.152344 38.183594 72.402344 38.402344 72.628906 38.644531 C 72.855469 38.890625 73.058594 39.152344 73.230469 39.433594 C 73.40625 39.71875 73.554688 40.015625 73.671875 40.328125 C 73.789062 40.636719 73.875 40.957031 73.929688 41.285156 C 73.980469 41.617188 74.003906 41.945312 73.992188 42.277344 C 73.980469 42.613281 73.9375 42.941406 73.863281 43.265625 C 73.789062 43.589844 73.683594 43.902344 73.546875 44.207031 C 73.410156 44.511719 73.242188 44.796875 73.050781 45.070312 C 72.855469 45.339844 72.636719 45.589844 72.394531 45.816406 C 72.152344 46.042969 71.890625 46.246094 71.609375 46.421875 C 71.328125 46.597656 71.03125 46.746094 70.71875 46.863281 C 70.410156 46.980469 70.089844 47.066406 69.761719 47.121094 C 69.433594 47.175781 69.105469 47.195312 68.773438 47.183594 C 68.441406 47.175781 68.113281 47.132812 67.789062 47.054688 C 67.46875 46.980469 67.152344 46.875 66.851562 46.734375 C 66.550781 46.597656 66.261719 46.433594 65.992188 46.238281 C 65.722656 46.046875 65.472656 45.828125 65.246094 45.582031 C 65.019531 45.339844 64.820312 45.078125 64.644531 44.792969 C 64.46875 44.511719 64.320312 44.214844 64.203125 43.902344 C 64.085938 43.589844 64 43.269531 63.949219 42.941406 C 63.894531 42.613281 63.871094 42.28125 63.882812 41.949219 C 63.894531 41.617188 63.9375 41.289062 64.011719 40.964844 C 64.085938 40.640625 64.191406 40.324219 64.328125 40.023438 C 64.46875 39.71875 64.632812 39.429688 64.824219 39.160156 C 65.019531 38.890625 65.238281 38.640625 65.480469 38.414062 C 65.722656 38.183594 65.984375 37.984375 66.265625 37.808594 C 66.546875 37.632812 66.84375 37.484375 67.15625 37.367188 C 67.464844 37.25 67.785156 37.164062 68.113281 37.109375 C 68.441406 37.054688 68.769531 37.035156 69.101562 37.042969 C 69.433594 37.054688 69.761719 37.097656 70.085938 37.171875 Z M 70.085938 37.171875 " fill-opacity="1" fill-rule="nonzero"/></svg>