<svg xmlns="http://www.w3.org/2000/svg" xmlns:xlink="http://www.w3.org/1999/xlink" width="150" zoomAndPan="magnify" viewBox="0 0 112.5 112.499997" height="150" preserveAspectRatio="xMidYMid meet" version="1.0"><defs><clipPath id="be4c0b7525"><path d="M 0 0 L 112.003906 0 L 112.003906 112.003906 L 0 112.003906 Z M 0 0 " clip-rule="nonzero"/></clipPath><clipPath id="476d216dad"><path d="M 5.476562 5.476562 L 106.527344 5.476562 L 106.527344 106.527344 L 5.476562 106.527344 Z M 5.476562 5.476562 " clip-rule="nonzero"/></clipPath><clipPath id="180f997423"><path d="M 56 5.476562 C 28.097656 5.476562 5.476562 28.097656 5.476562 56 C 5.476562 83.90625 28.097656 106.527344 56 106.527344 C 83.90625 106.527344 106.527344 83.90625 106.527344 56 C 106.527344 28.097656 83.90625 5.476562 56 5.476562 Z M 56 5.476562 " clip-rule="nonzero"/></clipPath><clipPath id="8ed7879624"><path d="M 19.023438 19.023438 L 92.945312 19.023438 L 92.945312 92.945312 L 19.023438 92.945312 Z M 19.023438 19.023438 " clip-rule="nonzero"/></clipPath></defs><g clip-path="url(#be4c0b7525)"><path fill="#ffffff" d="M 0 0 L 112.003906 0 L 112.003906 112.003906 L 0 112.003906 Z M 0 0 " fill-opacity="1" fill-rule="nonzero"/><path fill="#ffffff" d="M 0 0 L 112.003906 0 L 112.003906 112.003906 L 0 112.003906 Z M 0 0 " fill-opacity="1" fill-rule="nonzero"/></g><g clip-path="url(#476d216dad)"><g clip-path="url(#180f997423)"><path fill="#ffde59" d="M 5.476562 5.476562 L 106.527344 5.476562 L 106.527344 106.527344 L 5.476562 106.527344 Z M 5.476562 5.476562 " fill-opacity="1" fill-rule="nonzero"/></g></g><g clip-path="url(#8ed7879624)"><path fill="#000000" d="M 75.859375 83.46875 L 75.210938 85.078125 C 74.976562 85.65625 74.425781 86.003906 73.839844 86.003906 C 73.65625 86.003906 73.46875 85.96875 73.289062 85.898438 C 72.53125 85.589844 72.167969 84.730469 72.472656 83.976562 L 73.121094 82.367188 C 73.425781 81.609375 74.292969 81.25 75.042969 81.546875 C 75.796875 81.855469 76.164062 82.714844 75.859375 83.46875 Z M 92.691406 76.972656 C 92.386719 77.730469 91.527344 78.089844 90.773438 77.789062 L 85.175781 75.539062 L 78.550781 91.949219 C 78.320312 92.523438 77.765625 92.871094 77.183594 92.871094 C 77 92.871094 76.8125 92.839844 76.628906 92.765625 L 67.054688 88.902344 C 66.296875 88.59375 65.933594 87.734375 66.234375 86.980469 L 73.96875 67.824219 C 74.273438 67.066406 75.140625 66.710938 75.890625 67.007812 L 85.46875 70.875 C 85.832031 71.019531 86.121094 71.304688 86.273438 71.664062 C 86.425781 72.027344 86.429688 72.433594 86.285156 72.792969 L 86.28125 72.800781 L 91.875 75.050781 C 92.628906 75.355469 92.996094 76.214844 92.691406 76.972656 Z M 82.996094 73.058594 L 76.152344 70.296875 L 69.527344 86.714844 L 76.363281 89.476562 C 76.363281 89.476562 76.363281 89.472656 76.363281 89.472656 L 82.988281 73.066406 C 82.988281 73.0625 82.992188 73.0625 82.992188 73.0625 Z M 19.023438 55.984375 C 19.023438 55.167969 19.6875 54.511719 20.5 54.511719 L 79.519531 54.511719 C 80.335938 54.511719 80.996094 55.167969 80.996094 55.984375 C 80.996094 56.800781 80.335938 57.460938 79.519531 57.460938 L 68.441406 57.460938 C 68.683594 58.136719 68.777344 58.867188 68.667969 59.59375 L 67.835938 65.136719 C 67.742188 65.777344 68.066406 66.398438 68.644531 66.679688 L 70.703125 67.695312 C 71.433594 68.054688 71.734375 68.941406 71.375 69.671875 C 71.019531 70.402344 70.132812 70.703125 69.402344 70.34375 L 67.339844 69.328125 C 65.605469 68.472656 64.628906 66.613281 64.917969 64.699219 L 65.746094 59.15625 C 65.8125 58.722656 65.691406 58.304688 65.40625 57.972656 C 65.121094 57.644531 64.726562 57.460938 64.289062 57.460938 L 63.761719 57.460938 C 63.167969 57.460938 62.636719 57.8125 62.402344 58.355469 L 59.65625 64.765625 C 58.851562 66.644531 56.878906 67.730469 54.863281 67.386719 L 49.105469 66.429688 C 48.304688 66.296875 47.5625 65.949219 46.953125 65.421875 L 38.90625 58.523438 C 38.101562 57.839844 37.078125 57.460938 36.023438 57.460938 L 34.515625 57.460938 C 34.109375 57.460938 33.78125 57.792969 33.78125 58.199219 C 33.78125 58.363281 33.832031 58.519531 33.925781 58.644531 L 44.355469 72.746094 C 44.816406 73.367188 45.4375 73.859375 46.144531 74.167969 L 64.371094 82.113281 C 65.117188 82.441406 65.460938 83.3125 65.136719 84.058594 C 64.894531 84.613281 64.351562 84.945312 63.78125 84.945312 C 63.585938 84.945312 63.382812 84.90625 63.195312 84.820312 L 44.96875 76.875 C 43.785156 76.359375 42.753906 75.539062 41.988281 74.5 L 31.554688 60.402344 C 31.085938 59.769531 30.828125 58.992188 30.828125 58.207031 C 30.828125 57.953125 30.855469 57.703125 30.902344 57.460938 L 20.5 57.460938 C 19.6875 57.460938 19.023438 56.800781 19.023438 55.984375 Z M 59.578125 57.460938 L 42.195312 57.460938 L 48.871094 63.183594 C 49.074219 63.355469 49.324219 63.472656 49.589844 63.519531 L 55.34375 64.480469 C 56.019531 64.582031 56.675781 64.230469 56.941406 63.605469 Z M 73.617188 51.558594 C 73.617188 52.375 74.277344 53.035156 75.09375 53.035156 C 75.910156 53.035156 76.570312 52.375 76.570312 51.558594 C 76.570312 37.414062 65.441406 25.847656 51.484375 25.074219 L 51.484375 22.050781 L 52.960938 22.050781 C 53.777344 22.050781 54.4375 21.390625 54.4375 20.574219 C 54.4375 19.757812 53.777344 19.097656 52.960938 19.097656 L 47.058594 19.097656 C 46.246094 19.097656 45.582031 19.757812 45.582031 20.574219 C 45.582031 21.390625 46.246094 22.050781 47.058594 22.050781 L 48.535156 22.050781 L 48.535156 25.074219 C 34.578125 25.847656 23.453125 37.414062 23.453125 51.558594 C 23.453125 52.375 24.113281 53.035156 24.925781 53.035156 C 25.742188 53.035156 26.402344 52.375 26.402344 51.558594 C 26.402344 38.542969 36.992188 27.953125 50.011719 27.953125 C 63.027344 27.953125 73.617188 38.542969 73.617188 51.558594 Z M 54.777344 31.453125 C 53.988281 31.277344 53.191406 31.757812 53.003906 32.550781 C 52.816406 33.34375 53.304688 34.136719 54.097656 34.328125 C 57.910156 35.226562 61.371094 37.417969 63.835938 40.496094 C 64.125 40.859375 64.554688 41.050781 64.988281 41.050781 C 65.3125 41.050781 65.636719 40.941406 65.910156 40.726562 C 66.546875 40.214844 66.648438 39.285156 66.136719 38.652344 C 63.261719 35.0625 59.230469 32.507812 54.777344 31.453125 Z M 54.777344 31.453125 " fill-opacity="1" fill-rule="nonzero"/></g></svg>