<svg xmlns="http://www.w3.org/2000/svg" xmlns:xlink="http://www.w3.org/1999/xlink" width="150" zoomAndPan="magnify" viewBox="0 0 112.5 112.499997" height="150" preserveAspectRatio="xMidYMid meet" version="1.0"><defs><clipPath id="729a58b2ba"><path d="M 0 0 L 112.003906 0 L 112.003906 112.003906 L 0 112.003906 Z M 0 0 " clip-rule="nonzero"/></clipPath><clipPath id="928a453e34"><path d="M 5.476562 5.476562 L 106.527344 5.476562 L 106.527344 106.527344 L 5.476562 106.527344 Z M 5.476562 5.476562 " clip-rule="nonzero"/></clipPath><clipPath id="b426111a48"><path d="M 56 5.476562 C 28.097656 5.476562 5.476562 28.097656 5.476562 56 C 5.476562 83.90625 28.097656 106.527344 56 106.527344 C 83.90625 106.527344 106.527344 83.90625 106.527344 56 C 106.527344 28.097656 83.90625 5.476562 56 5.476562 Z M 56 5.476562 " clip-rule="nonzero"/></clipPath><clipPath id="da3074b714"><path d="M 20.863281 21.4375 L 91.054688 21.4375 L 91.054688 90.878906 L 20.863281 90.878906 Z M 20.863281 21.4375 " clip-rule="nonzero"/></clipPath></defs><g clip-path="url(#729a58b2ba)"><path fill="#ffffff" d="M 0 0 L 112.003906 0 L 112.003906 112.003906 L 0 112.003906 Z M 0 0 " fill-opacity="1" fill-rule="nonzero"/><path fill="#ffffff" d="M 0 0 L 112.003906 0 L 112.003906 112.003906 L 0 112.003906 Z M 0 0 " fill-opacity="1" fill-rule="nonzero"/></g><g clip-path="url(#928a453e34)"><g clip-path="url(#b426111a48)"><path fill="#ffde59" d="M 5.476562 5.476562 L 106.527344 5.476562 L 106.527344 106.527344 L 5.476562 106.527344 Z M 5.476562 5.476562 " fill-opacity="1" fill-rule="nonzero"/></g></g><path fill="#000000" d="M 42.839844 74.78125 C 42.105469 74.457031 41.328125 74.292969 40.53125 74.292969 C 38.234375 74.292969 36.152344 75.660156 35.230469 77.777344 C 33.957031 80.714844 35.292969 84.148438 38.214844 85.433594 C 38.949219 85.757812 39.726562 85.921875 40.523438 85.921875 C 42.824219 85.921875 44.902344 84.550781 45.820312 82.433594 C 46.441406 81.011719 46.46875 79.433594 45.90625 77.988281 C 45.34375 76.542969 44.253906 75.402344 42.839844 74.78125 Z M 43.746094 81.527344 C 43.1875 82.816406 41.925781 83.648438 40.523438 83.648438 C 40.039062 83.648438 39.566406 83.546875 39.121094 83.351562 C 37.339844 82.570312 36.527344 80.476562 37.304688 78.691406 C 37.863281 77.402344 39.128906 76.566406 40.53125 76.566406 C 41.011719 76.566406 41.488281 76.667969 41.933594 76.863281 C 42.792969 77.242188 43.457031 77.9375 43.800781 78.816406 C 44.144531 79.695312 44.125 80.660156 43.746094 81.527344 Z M 43.746094 81.527344 " fill-opacity="1" fill-rule="nonzero"/><path fill="#000000" d="M 56.011719 62.363281 C 56.636719 62.363281 57.144531 61.855469 57.144531 61.226562 L 57.144531 61.214844 C 57.144531 60.585938 56.636719 60.082031 56.011719 60.082031 C 55.390625 60.082031 54.882812 60.597656 54.882812 61.226562 C 54.882812 61.855469 55.390625 62.363281 56.011719 62.363281 Z M 56.011719 62.363281 " fill-opacity="1" fill-rule="nonzero"/><path fill="#000000" d="M 71.503906 85.921875 C 72.300781 85.921875 73.082031 85.757812 73.816406 85.433594 C 76.734375 84.148438 78.070312 80.714844 76.796875 77.777344 C 75.878906 75.664062 73.796875 74.296875 71.5 74.296875 C 70.703125 74.296875 69.925781 74.457031 69.1875 74.78125 C 66.269531 76.0625 64.933594 79.496094 66.207031 82.4375 C 67.125 84.550781 69.207031 85.921875 71.503906 85.921875 Z M 70.089844 76.863281 C 70.542969 76.667969 71.015625 76.566406 71.5 76.566406 C 72.898438 76.566406 74.167969 77.402344 74.726562 78.6875 C 75.5 80.476562 74.6875 82.570312 72.914062 83.351562 C 72.464844 83.550781 71.988281 83.648438 71.503906 83.648438 C 70.105469 83.648438 68.839844 82.816406 68.277344 81.527344 C 67.5 79.738281 68.316406 77.644531 70.089844 76.863281 Z M 70.089844 76.863281 " fill-opacity="1" fill-rule="nonzero"/><g clip-path="url(#da3074b714)"><path fill="#000000" d="M 87.363281 42.394531 L 90.941406 34.855469 C 91.109375 34.503906 91.085938 34.089844 90.878906 33.757812 C 90.671875 33.429688 90.3125 33.230469 89.921875 33.230469 L 71.117188 33.230469 C 71.128906 28.464844 70.34375 24.640625 68.8125 22.144531 C 68.59375 21.78125 68.199219 21.578125 67.773438 21.605469 C 67.355469 21.632812 66.988281 21.894531 66.816406 22.285156 L 62.058594 33.230469 L 49.96875 33.230469 L 45.210938 22.285156 C 45.042969 21.894531 44.675781 21.632812 44.257812 21.605469 C 43.835938 21.578125 43.4375 21.78125 43.214844 22.140625 C 41.550781 24.851562 40.886719 28.8125 40.90625 33.230469 L 22.109375 33.230469 C 21.71875 33.230469 21.359375 33.429688 21.152344 33.757812 C 20.945312 34.089844 20.921875 34.503906 21.085938 34.855469 L 24.664062 42.394531 L 21.085938 49.933594 C 20.921875 50.285156 20.945312 50.699219 21.152344 51.03125 C 21.359375 51.359375 21.71875 51.558594 22.109375 51.558594 L 43.984375 51.558594 C 44.070312 51.832031 44.152344 52.109375 44.242188 52.378906 C 45.613281 56.539062 47.253906 60.160156 49.0625 63.148438 L 45.707031 70.871094 C 45.394531 70.695312 45.074219 70.535156 44.746094 70.394531 C 42.167969 69.257812 39.304688 69.203125 36.683594 70.234375 C 34.0625 71.269531 31.996094 73.265625 30.871094 75.859375 C 29.742188 78.457031 29.683594 81.335938 30.710938 83.976562 C 31.738281 86.609375 33.726562 88.6875 36.308594 89.824219 C 37.675781 90.421875 39.105469 90.710938 40.511719 90.710938 C 44.578125 90.710938 48.460938 88.332031 50.191406 84.351562 C 51.003906 82.472656 51.261719 80.417969 50.933594 78.410156 C 50.550781 76.050781 52.3125 72.484375 54.242188 71.714844 C 54.839844 71.476562 55.425781 71.15625 56.007812 70.800781 C 56.597656 71.164062 57.191406 71.476562 57.789062 71.714844 C 59.71875 72.480469 61.480469 76.050781 61.097656 78.410156 C 60.769531 80.421875 61.027344 82.476562 61.84375 84.355469 C 63.523438 88.214844 67.316406 90.710938 71.507812 90.710938 C 72.964844 90.710938 74.382812 90.410156 75.722656 89.820312 C 81.046875 87.480469 83.488281 81.21875 81.160156 75.859375 C 79.484375 71.996094 75.6875 69.503906 71.5 69.503906 C 70.042969 69.503906 68.625 69.800781 67.28125 70.390625 C 66.957031 70.535156 66.636719 70.695312 66.324219 70.871094 L 62.964844 63.140625 C 64.917969 59.90625 66.660156 55.933594 68.042969 51.558594 L 89.921875 51.558594 C 90.308594 51.558594 90.671875 51.359375 90.878906 51.03125 C 91.085938 50.699219 91.109375 50.285156 90.941406 49.933594 Z M 67.875 25.523438 C 68.539062 27.542969 68.875 30.152344 68.863281 33.230469 L 64.523438 33.230469 Z M 23.898438 49.289062 L 26.9375 42.882812 C 27.085938 42.574219 27.085938 42.214844 26.9375 41.90625 L 23.898438 35.503906 L 40.96875 35.503906 C 41.210938 40.035156 42.089844 44.882812 43.3125 49.289062 Z M 53.40625 69.597656 C 50.46875 70.769531 48.136719 75.316406 48.699219 78.777344 C 48.957031 80.351562 48.753906 81.964844 48.117188 83.441406 C 46.285156 87.648438 41.394531 89.574219 37.210938 87.738281 C 35.183594 86.847656 33.625 85.214844 32.816406 83.144531 C 32.007812 81.074219 32.054688 78.808594 32.941406 76.769531 C 33.828125 74.734375 35.449219 73.164062 37.507812 72.351562 C 39.566406 71.539062 41.816406 71.585938 43.84375 72.476562 C 44.433594 72.734375 45 73.066406 45.527344 73.464844 C 45.804688 73.675781 46.160156 73.742188 46.492188 73.65625 C 46.828125 73.566406 47.105469 73.328125 47.242188 73.011719 L 50.542969 65.40625 C 51.65625 66.949219 52.816406 68.261719 54.011719 69.3125 C 53.8125 69.414062 53.609375 69.519531 53.40625 69.597656 Z M 65.535156 73.65625 C 65.867188 73.746094 66.226562 73.675781 66.5 73.464844 C 67.027344 73.070312 67.59375 72.734375 68.183594 72.476562 C 69.242188 72.011719 70.355469 71.777344 71.496094 71.777344 C 74.789062 71.777344 77.769531 73.738281 79.089844 76.773438 C 80.917969 80.980469 79 85.898438 74.816406 87.738281 C 73.761719 88.203125 72.648438 88.4375 71.507812 88.4375 C 68.210938 88.4375 65.230469 86.476562 63.914062 83.441406 C 63.273438 81.96875 63.070312 80.355469 63.328125 78.773438 C 63.886719 75.3125 61.554688 70.769531 58.617188 69.597656 C 54.070312 67.792969 49.5 61.085938 46.386719 51.664062 C 43.082031 41.664062 42.265625 31.300781 44.15625 25.527344 L 64.785156 73.011719 C 64.925781 73.332031 65.199219 73.570312 65.535156 73.65625 Z M 61.84375 60.5625 L 57.933594 51.5625 L 65.671875 51.5625 C 64.582031 54.878906 63.28125 57.9375 61.84375 60.5625 Z M 56.945312 49.289062 L 50.957031 35.503906 L 88.132812 35.503906 L 85.09375 41.90625 C 84.945312 42.214844 84.945312 42.574219 85.09375 42.882812 L 88.132812 49.289062 Z M 56.945312 49.289062 " fill-opacity="1" fill-rule="nonzero"/></g></svg>