<svg xmlns="http://www.w3.org/2000/svg" xmlns:xlink="http://www.w3.org/1999/xlink" width="150" zoomAndPan="magnify" viewBox="0 0 112.5 112.499997" height="150" preserveAspectRatio="xMidYMid meet" version="1.0"><defs><clipPath id="9d1b9591c2"><path d="M 0 0 L 112.003906 0 L 112.003906 112.003906 L 0 112.003906 Z M 0 0 " clip-rule="nonzero"/></clipPath><clipPath id="a45ddd3dd7"><path d="M 5.476562 5.476562 L 106.527344 5.476562 L 106.527344 106.527344 L 5.476562 106.527344 Z M 5.476562 5.476562 " clip-rule="nonzero"/></clipPath><clipPath id="a38dd6627e"><path d="M 56 5.476562 C 28.097656 5.476562 5.476562 28.097656 5.476562 56 C 5.476562 83.90625 28.097656 106.527344 56 106.527344 C 83.90625 106.527344 106.527344 83.90625 106.527344 56 C 106.527344 28.097656 83.90625 5.476562 56 5.476562 Z M 56 5.476562 " clip-rule="nonzero"/></clipPath><clipPath id="3771869ae9"><path d="M 62 44 L 89 44 L 89 82.167969 L 62 82.167969 Z M 62 44 " clip-rule="nonzero"/></clipPath><clipPath id="65e5efd091"><path d="M 24 44 L 50 44 L 50 82.167969 L 24 82.167969 Z M 24 44 " clip-rule="nonzero"/></clipPath><clipPath id="23f08bc6cf"><path d="M 71 48 L 93.835938 48 L 93.835938 74 L 71 74 Z M 71 48 " clip-rule="nonzero"/></clipPath><clipPath id="be6e237207"><path d="M 18.421875 48 L 41 48 L 41 74 L 18.421875 74 Z M 18.421875 48 " clip-rule="nonzero"/></clipPath><clipPath id="1322cd5b78"><path d="M 51 29.902344 L 61 29.902344 L 61 40 L 51 40 Z M 51 29.902344 " clip-rule="nonzero"/></clipPath></defs><g clip-path="url(#9d1b9591c2)"><path fill="#ffffff" d="M 0 0 L 112.003906 0 L 112.003906 112.003906 L 0 112.003906 Z M 0 0 " fill-opacity="1" fill-rule="nonzero"/><path fill="#ffffff" d="M 0 0 L 112.003906 0 L 112.003906 112.003906 L 0 112.003906 Z M 0 0 " fill-opacity="1" fill-rule="nonzero"/></g><g clip-path="url(#a45ddd3dd7)"><g clip-path="url(#a38dd6627e)"><path fill="#ffde59" d="M 5.476562 5.476562 L 106.527344 5.476562 L 106.527344 106.527344 L 5.476562 106.527344 Z M 5.476562 5.476562 " fill-opacity="1" fill-rule="nonzero"/></g></g><g clip-path="url(#3771869ae9)"><path fill="#020202" d="M 69.1875 73.957031 C 69.1875 75.683594 69.238281 77.414062 69.171875 79.140625 C 69.097656 81.03125 67.941406 82.136719 66.148438 82.179688 C 64.378906 82.21875 62.964844 81.148438 62.925781 79.324219 C 62.824219 74.261719 62.828125 69.199219 62.921875 64.136719 C 62.953125 62.425781 64.347656 61.316406 66.183594 61.273438 C 68.472656 61.21875 70.765625 61.210938 73.050781 61.269531 C 74.148438 61.300781 74.625 61.128906 74.71875 59.8125 C 74.941406 56.621094 75.5 53.460938 76.460938 50.390625 C 77.628906 46.65625 80.886719 44.261719 84.78125 44.289062 C 87.496094 44.308594 88.675781 45.847656 87.957031 48.554688 C 86.871094 52.652344 85.730469 56.734375 84.601562 60.820312 C 82.78125 67.382812 82.777344 67.382812 75.875 67.382812 C 74.265625 67.382812 72.648438 67.46875 71.046875 67.355469 C 69.648438 67.257812 69.023438 67.589844 69.167969 69.140625 C 69.3125 70.734375 69.199219 72.351562 69.199219 73.957031 C 69.195312 73.957031 69.191406 73.957031 69.1875 73.957031 Z M 69.1875 73.957031 " fill-opacity="1" fill-rule="evenodd"/></g><g clip-path="url(#65e5efd091)"><path fill="#010101" d="M 49.394531 71.730469 C 49.394531 74.078125 49.425781 76.425781 49.386719 78.773438 C 49.351562 80.917969 48.054688 82.21875 46.089844 82.175781 C 44.203125 82.136719 43.066406 80.882812 43.050781 78.75 C 43.027344 75.539062 42.976562 72.324219 43.074219 69.117188 C 43.117188 67.777344 42.84375 67.273438 41.378906 67.34375 C 38.601562 67.472656 35.808594 67.402344 33.023438 67.375 C 30.535156 67.351562 29.175781 66.3125 28.492188 63.867188 C 27.042969 58.65625 25.613281 53.4375 24.222656 48.210938 C 23.601562 45.867188 24.820312 44.351562 27.257812 44.289062 C 31.332031 44.191406 34.8125 46.695312 35.9375 50.703125 C 36.75 53.609375 37.359375 56.582031 37.492188 59.605469 C 37.546875 60.832031 37.863281 61.363281 39.207031 61.28125 C 41.179688 61.164062 43.167969 61.246094 45.148438 61.253906 C 48.332031 61.265625 49.390625 62.308594 49.394531 65.429688 C 49.398438 67.53125 49.394531 69.628906 49.394531 71.730469 Z M 49.394531 71.730469 " fill-opacity="1" fill-rule="evenodd"/></g><path fill="#010101" d="M 56.339844 40.949219 C 58.257812 40.949219 60.171875 40.929688 62.089844 40.953125 C 65.453125 40.996094 67.886719 43.402344 67.988281 46.765625 C 68.003906 47.257812 67.992188 47.75 67.992188 48.242188 C 67.992188 50.710938 67.992188 50.640625 65.609375 50.71875 C 64.363281 50.757812 63.789062 50.488281 63.945312 49.125 C 64.011719 48.535156 64.304688 47.460938 63.417969 47.429688 C 62.429688 47.390625 62.761719 48.480469 62.839844 49.042969 C 63.035156 50.5 62.425781 50.761719 61.09375 50.722656 C 57.882812 50.621094 54.664062 50.621094 51.453125 50.722656 C 50.128906 50.761719 49.652344 50.351562 49.859375 49.074219 C 49.90625 48.777344 49.875 48.457031 49.84375 48.152344 C 49.808594 47.78125 49.734375 47.339844 49.261719 47.363281 C 48.859375 47.390625 48.65625 47.734375 48.683594 48.160156 C 48.683594 48.222656 48.691406 48.285156 48.683594 48.347656 C 48.566406 49.109375 49.085938 50.296875 48.378906 50.558594 C 47.398438 50.921875 46.191406 50.671875 45.082031 50.679688 C 44.695312 50.683594 44.527344 50.460938 44.546875 50.109375 C 44.628906 48.214844 44.15625 46.246094 45 44.445312 C 46.015625 42.28125 47.753906 41.011719 50.21875 40.957031 C 52.257812 40.914062 54.296875 40.949219 56.339844 40.949219 Z M 56.339844 40.949219 " fill-opacity="1" fill-rule="evenodd"/><path fill="#010101" d="M 56.453125 56.546875 C 51.375 56.546875 46.296875 56.476562 41.222656 56.585938 C 39.679688 56.621094 39.667969 55.898438 39.78125 54.828125 C 39.882812 53.855469 39.238281 52.632812 41.21875 52.648438 C 51.3125 52.734375 61.410156 52.734375 71.5 52.644531 C 73.242188 52.628906 72.851562 53.628906 72.804688 54.523438 C 72.761719 55.398438 73.414062 56.628906 71.5 56.582031 C 66.488281 56.46875 61.46875 56.546875 56.453125 56.546875 Z M 56.453125 56.546875 " fill-opacity="1" fill-rule="evenodd"/><g clip-path="url(#23f08bc6cf)"><path fill="#020202" d="M 76.964844 73.238281 C 75.910156 73.238281 74.859375 73.230469 73.804688 73.238281 C 72.710938 73.25 71.972656 72.742188 71.917969 71.644531 C 71.859375 70.441406 72.699219 70.09375 73.761719 70.097656 C 75.496094 70.101562 77.230469 70.105469 78.960938 70.097656 C 82.886719 70.078125 85.195312 68.339844 86.234375 64.570312 C 87.59375 59.652344 88.929688 54.734375 90.242188 49.808594 C 90.542969 48.675781 91.035156 47.703125 92.355469 48.09375 C 93.625 48.464844 93.605469 49.523438 93.292969 50.667969 C 91.960938 55.59375 90.730469 60.542969 89.367188 65.460938 C 87.980469 70.460938 84.21875 73.230469 79.007812 73.238281 C 78.324219 73.238281 77.644531 73.238281 76.964844 73.238281 Z M 76.964844 73.238281 " fill-opacity="1" fill-rule="evenodd"/></g><g clip-path="url(#be6e237207)"><path fill="#020202" d="M 35.113281 73.238281 C 33.859375 73.136719 32.386719 73.300781 30.898438 73.007812 C 26.78125 72.199219 24.160156 69.746094 23.015625 65.835938 C 21.550781 60.824219 20.292969 55.75 18.960938 50.695312 C 18.675781 49.621094 18.59375 48.449219 19.917969 48.082031 C 21.238281 47.714844 21.722656 48.679688 22.027344 49.820312 C 23.316406 54.695312 24.664062 59.550781 25.96875 64.417969 C 26.996094 68.234375 29.363281 70.082031 33.320312 70.097656 C 35.054688 70.101562 36.789062 70.101562 38.519531 70.097656 C 39.582031 70.09375 40.460938 70.492188 40.402344 71.636719 C 40.351562 72.664062 39.601562 73.253906 38.492188 73.242188 C 37.4375 73.226562 36.386719 73.238281 35.113281 73.238281 Z M 35.113281 73.238281 " fill-opacity="1" fill-rule="evenodd"/></g><path fill="#020202" d="M 87.699219 37.429688 C 87.695312 40.234375 85.445312 42.46875 82.640625 42.457031 C 79.828125 42.445312 77.605469 40.203125 77.621094 37.390625 C 77.628906 34.582031 79.863281 32.378906 82.6875 32.386719 C 85.519531 32.398438 87.703125 34.59375 87.699219 37.429688 Z M 87.699219 37.429688 " fill-opacity="1" fill-rule="evenodd"/><path fill="#020202" d="M 34.617188 37.292969 C 34.640625 40.132812 32.46875 42.394531 29.667969 42.449219 C 26.949219 42.503906 24.546875 40.191406 24.480469 37.453125 C 24.414062 34.644531 26.757812 32.363281 29.699219 32.367188 C 32.449219 32.378906 34.597656 34.523438 34.617188 37.292969 Z M 34.617188 37.292969 " fill-opacity="1" fill-rule="evenodd"/><g clip-path="url(#1322cd5b78)"><path fill="#020202" d="M 60.96875 34.621094 C 60.980469 37.273438 58.960938 39.273438 56.296875 39.253906 C 53.695312 39.234375 51.582031 37.113281 51.621094 34.558594 C 51.660156 32.109375 53.777344 30.019531 56.265625 29.980469 C 58.875 29.9375 60.960938 31.992188 60.96875 34.621094 Z M 60.96875 34.621094 " fill-opacity="1" fill-rule="evenodd"/></g></svg>