<svg xmlns="http://www.w3.org/2000/svg" xmlns:xlink="http://www.w3.org/1999/xlink" width="150" zoomAndPan="magnify" viewBox="0 0 112.5 112.499997" height="150" preserveAspectRatio="xMidYMid meet" version="1.0"><defs><clipPath id="d46cb5ed68"><path d="M 0 0 L 112.003906 0 L 112.003906 112.003906 L 0 112.003906 Z M 0 0 " clip-rule="nonzero"/></clipPath><clipPath id="4e77886c5b"><path d="M 5.476562 5.476562 L 106.527344 5.476562 L 106.527344 106.527344 L 5.476562 106.527344 Z M 5.476562 5.476562 " clip-rule="nonzero"/></clipPath><clipPath id="cae201d89e"><path d="M 56 5.476562 C 28.097656 5.476562 5.476562 28.097656 5.476562 56 C 5.476562 83.90625 28.097656 106.527344 56 106.527344 C 83.90625 106.527344 106.527344 83.90625 106.527344 56 C 106.527344 28.097656 83.90625 5.476562 56 5.476562 Z M 56 5.476562 " clip-rule="nonzero"/></clipPath><clipPath id="7099b64d12"><path d="M 82 50 L 89.828125 50 L 89.828125 55 L 82 55 Z M 82 50 " clip-rule="nonzero"/></clipPath><clipPath id="aa7c971aa1"><path d="M 56 21.832031 L 59 21.832031 L 59 25 L 56 25 Z M 56 21.832031 " clip-rule="nonzero"/></clipPath><clipPath id="8f054209ff"><path d="M 68 48 L 89.828125 48 L 89.828125 86.792969 L 68 86.792969 Z M 68 48 " clip-rule="nonzero"/></clipPath><clipPath id="6b567b1aff"><path d="M 22 40 L 44 40 L 44 86.792969 L 22 86.792969 Z M 22 40 " clip-rule="nonzero"/></clipPath><clipPath id="1b640b9dba"><path d="M 42 53 L 70 53 L 70 86.792969 L 42 86.792969 Z M 42 53 " clip-rule="nonzero"/></clipPath><clipPath id="e4473697e5"><path d="M 82 40 L 89.828125 40 L 89.828125 50 L 82 50 Z M 82 40 " clip-rule="nonzero"/></clipPath></defs><g clip-path="url(#d46cb5ed68)"><path fill="#ffffff" d="M 0 0 L 112.003906 0 L 112.003906 112.003906 L 0 112.003906 Z M 0 0 " fill-opacity="1" fill-rule="nonzero"/><path fill="#ffffff" d="M 0 0 L 112.003906 0 L 112.003906 112.003906 L 0 112.003906 Z M 0 0 " fill-opacity="1" fill-rule="nonzero"/></g><g clip-path="url(#4e77886c5b)"><g clip-path="url(#cae201d89e)"><path fill="#ffde59" d="M 5.476562 5.476562 L 106.527344 5.476562 L 106.527344 106.527344 L 5.476562 106.527344 Z M 5.476562 5.476562 " fill-opacity="1" fill-rule="nonzero"/></g></g><g clip-path="url(#7099b64d12)"><path fill="#000000" d="M 90.019531 51 C 90.042969 53.121094 88.351562 54.855469 86.238281 54.871094 C 84.140625 54.886719 82.4375 53.167969 82.425781 51.027344 C 82.425781 50.6875 82.472656 50.351562 82.558594 50.035156 L 89.882812 50.035156 C 89.96875 50.339844 90.015625 50.664062 90.019531 51 " fill-opacity="1" fill-rule="nonzero"/></g><path fill="#000000" d="M 54.082031 54.503906 C 54.078125 56.554688 52.398438 58.234375 50.328125 58.25 C 48.203125 58.265625 46.46875 56.554688 46.484375 54.453125 C 46.5 52.28125 48.179688 50.644531 50.382812 50.648438 C 52.445312 50.65625 54.085938 52.363281 54.082031 54.503906 " fill-opacity="1" fill-rule="nonzero"/><path fill="#000000" d="M 81.453125 62.710938 C 79.789062 62.6875 78.488281 62.066406 77.488281 60.941406 C 76.847656 60.222656 76.332031 59.390625 75.84375 58.558594 C 75.425781 57.851562 75.710938 57.042969 76.382812 56.6875 C 77.0625 56.328125 77.785156 56.574219 78.242188 57.296875 C 78.605469 57.871094 78.949219 58.472656 79.390625 58.980469 C 80.296875 60.023438 81.367188 60.308594 82.597656 59.675781 C 83.539062 59.1875 84.398438 58.507812 85.207031 57.8125 C 85.980469 57.148438 86.683594 57 87.304688 57.574219 C 87.914062 58.140625 87.898438 58.964844 87.21875 59.671875 C 85.832031 61.105469 84.28125 62.269531 82.253906 62.625 C 81.949219 62.675781 81.640625 62.691406 81.453125 62.710938 " fill-opacity="1" fill-rule="nonzero"/><path fill="#000000" d="M 68.523438 46.058594 C 65.792969 41.789062 63.746094 37.242188 62.898438 32.203125 C 62.789062 31.539062 62.601562 30.878906 62.390625 30.234375 C 62.375 30.191406 62.363281 30.152344 62.351562 30.113281 C 62.351562 30.113281 62.351562 30.113281 62.347656 30.113281 C 62.34375 30.089844 62.332031 30.066406 62.324219 30.042969 C 62.304688 29.976562 62.265625 29.921875 62.226562 29.867188 C 61.636719 28.800781 61.398438 29.785156 61.375 29.902344 C 61.351562 29.984375 61.335938 30.070312 61.320312 30.152344 C 61.320312 30.152344 61.320312 30.15625 61.320312 30.160156 C 61.320312 30.160156 61.320312 30.164062 61.320312 30.164062 C 61.277344 30.40625 61.265625 30.613281 61.265625 30.613281 L 61.277344 30.621094 C 61.253906 31.015625 61.257812 31.417969 61.332031 31.800781 C 61.792969 34.261719 62.679688 36.582031 63.753906 38.832031 C 65.15625 41.769531 66.894531 44.488281 69.082031 46.929688 C 68.894531 46.640625 68.710938 46.351562 68.523438 46.058594 " fill-opacity="1" fill-rule="nonzero"/><path fill="#000000" d="M 65.394531 45.097656 C 60.984375 40.644531 55.953125 37.179688 49.875 35.398438 C 48.878906 35.109375 47.859375 34.886719 46.816406 35.160156 C 46.761719 35.175781 46.707031 35.199219 46.65625 35.230469 C 45.839844 35.410156 46.585938 35.902344 46.585938 35.902344 C 46.628906 35.941406 46.671875 35.976562 46.722656 35.992188 C 47.464844 36.265625 48.214844 36.542969 48.984375 36.699219 C 52.925781 37.488281 56.554688 39.027344 59.898438 41.222656 C 61.824219 42.488281 63.652344 43.910156 65.507812 45.246094 C 65.496094 45.230469 65.453125 45.152344 65.394531 45.097656 " fill-opacity="1" fill-rule="nonzero"/><path fill="#000000" d="M 50.285156 28.890625 L 51.09375 28.46875 L 50.9375 29.367188 L 51.589844 30.003906 L 50.6875 30.136719 L 50.285156 30.953125 L 49.878906 30.136719 L 48.976562 30.003906 L 49.628906 29.367188 L 49.476562 28.46875 L 50.285156 28.890625 " fill-opacity="1" fill-rule="nonzero"/><path fill="#000000" d="M 54.082031 32.519531 L 54.890625 32.09375 L 54.738281 32.996094 L 55.390625 33.632812 L 54.488281 33.765625 L 54.082031 34.582031 L 53.679688 33.765625 L 52.777344 33.632812 L 53.429688 32.996094 L 53.273438 32.09375 L 54.082031 32.519531 " fill-opacity="1" fill-rule="nonzero"/><path fill="#000000" d="M 48.976562 39.320312 L 49.785156 38.898438 L 49.628906 39.796875 L 50.285156 40.433594 L 49.378906 40.5625 L 48.976562 41.382812 L 48.570312 40.5625 L 47.667969 40.433594 L 48.324219 39.796875 L 48.167969 38.898438 L 48.976562 39.320312 " fill-opacity="1" fill-rule="nonzero"/><path fill="#000000" d="M 43.667969 35.824219 L 44.476562 35.398438 L 44.320312 36.296875 L 44.976562 36.933594 L 44.074219 37.066406 L 43.667969 37.882812 L 43.265625 37.066406 L 42.359375 36.933594 L 43.015625 36.296875 L 42.859375 35.398438 L 43.667969 35.824219 " fill-opacity="1" fill-rule="nonzero"/><path fill="#000000" d="M 66.078125 34.578125 L 66.886719 34.15625 L 66.734375 35.054688 L 67.386719 35.691406 L 66.484375 35.824219 L 66.078125 36.640625 L 65.675781 35.824219 L 64.773438 35.691406 L 65.425781 35.054688 L 65.273438 34.15625 L 66.078125 34.578125 " fill-opacity="1" fill-rule="nonzero"/><path fill="#000000" d="M 57.742188 45.78125 L 58.550781 45.355469 L 58.398438 46.257812 L 59.050781 46.890625 L 58.148438 47.023438 L 57.742188 47.84375 L 57.339844 47.023438 L 56.4375 46.890625 L 57.089844 46.257812 L 56.9375 45.355469 L 57.742188 45.78125 " fill-opacity="1" fill-rule="nonzero"/><path fill="#000000" d="M 60.359375 25.976562 L 61.167969 25.550781 L 61.011719 26.453125 L 61.664062 27.089844 L 60.761719 27.222656 L 60.359375 28.039062 L 59.957031 27.222656 L 59.050781 27.089844 L 59.703125 26.453125 L 59.550781 25.550781 L 60.359375 25.976562 " fill-opacity="1" fill-rule="nonzero"/><g clip-path="url(#aa7c971aa1)"><path fill="#000000" d="M 57.433594 22.375 L 58.242188 21.953125 L 58.085938 22.851562 L 58.742188 23.488281 L 57.835938 23.621094 L 57.433594 24.4375 L 57.03125 23.621094 L 56.125 23.488281 L 56.78125 22.851562 L 56.625 21.953125 L 57.433594 22.375 " fill-opacity="1" fill-rule="nonzero"/></g><g clip-path="url(#8f054209ff)"><path fill="#000000" d="M 83.792969 75.457031 C 83.597656 75.082031 83.582031 74.78125 83.792969 74.417969 C 84.84375 72.597656 85.761719 70.71875 86.933594 68.945312 C 88.921875 65.941406 89.660156 62.472656 89.441406 58.851562 C 89.371094 57.699219 88.820312 56.730469 87.875 56.050781 C 87.09375 55.496094 86.289062 55.320312 85.273438 55.632812 C 81.242188 56.875 77.558594 56.453125 74.601562 53.078125 C 74.410156 52.859375 74.097656 52.648438 73.828125 52.628906 C 73.171875 52.582031 72.914062 52.136719 72.59375 51.636719 C 72.824219 51.46875 73.035156 51.316406 73.265625 51.148438 C 72.484375 50.222656 71.785156 49.386719 71.058594 48.523438 C 70.167969 49.277344 69.332031 49.980469 68.464844 50.714844 C 69.210938 51.601562 69.914062 52.441406 70.632812 53.292969 C 70.886719 53.101562 71.089844 52.941406 71.453125 52.664062 C 71.800781 53.386719 72.027344 54.097656 72.441406 54.671875 C 73.214844 55.75 74.21875 56.609375 75.371094 57.292969 C 75.445312 57.210938 75.496094 57.167969 75.53125 57.117188 C 76.402344 55.863281 77.808594 55.917969 78.558594 57.226562 C 78.777344 57.609375 78.96875 58.023438 79.265625 58.339844 C 79.515625 58.601562 79.878906 58.851562 80.222656 58.90625 C 80.90625 59.015625 81.617188 58.992188 82.347656 59.023438 C 82.300781 59.1875 82.261719 59.316406 82.199219 59.527344 C 83.421875 59.078125 84.308594 58.308594 85.140625 57.449219 C 85.839844 56.730469 86.820312 56.699219 87.511719 57.339844 C 88.1875 57.960938 88.242188 58.996094 87.597656 59.71875 C 86.433594 61.015625 85.078125 62.070312 83.410156 62.636719 C 83.386719 62.644531 83.363281 62.65625 83.34375 62.664062 L 82.734375 62.886719 L 82.558594 63.550781 C 82.152344 65.355469 81.375 66.949219 80.242188 68.453125 C 76.898438 72.890625 75.179688 77.9375 75.039062 83.503906 C 75.003906 84.914062 75.871094 85.84375 77.125 85.902344 C 78.105469 85.945312 79.304688 85.078125 79.296875 83.582031 C 79.289062 81.664062 79.582031 79.765625 80.21875 77.789062 C 80.386719 78.105469 80.503906 78.316406 80.613281 78.53125 C 81.691406 80.601562 82.773438 82.667969 83.84375 84.746094 C 84.230469 85.492188 84.8125 85.945312 85.652344 86.003906 C 87.339844 86.128906 88.425781 84.417969 87.632812 82.847656 C 86.378906 80.371094 85.089844 77.910156 83.792969 75.457031 " fill-opacity="1" fill-rule="nonzero"/></g><g clip-path="url(#6b567b1aff)"><path fill="#000000" d="M 43.9375 53.058594 C 43.820312 52.417969 43.351562 51.988281 42.722656 51.9375 C 42.042969 51.878906 41.558594 52.246094 41.269531 52.945312 C 40.839844 53.976562 40.449219 55.039062 39.890625 56 C 39.371094 56.894531 38.824219 56.976562 37.941406 56.441406 C 37.285156 56.046875 36.671875 55.570312 36.058594 55.101562 C 35.292969 54.519531 34.464844 54.21875 33.484375 54.242188 C 31.742188 54.285156 29.996094 54.257812 28.253906 54.246094 C 28.019531 54.246094 27.761719 54.207031 27.554688 54.101562 C 26.238281 53.433594 25.308594 52.40625 25.203125 50.898438 C 25.132812 49.925781 25.199219 48.910156 25.421875 47.964844 C 25.90625 45.902344 26.980469 44.09375 28.113281 42.324219 C 28.578125 41.589844 28.429688 40.84375 27.78125 40.402344 C 27.140625 39.964844 26.335938 40.097656 25.871094 40.796875 C 24.40625 42.992188 23.160156 45.296875 22.605469 47.90625 C 21.882812 51.347656 22.800781 54.558594 26.015625 56.40625 C 26.175781 56.496094 26.308594 56.789062 26.308594 56.988281 C 26.34375 60.9375 26.4375 64.890625 26.351562 68.835938 C 26.25 73.703125 25.289062 78.414062 23.339844 82.902344 C 22.820312 84.089844 23.316406 85.347656 24.4375 85.84375 C 25.558594 86.34375 26.828125 85.863281 27.359375 84.671875 C 29.039062 80.902344 30.042969 76.941406 30.488281 72.84375 C 30.644531 71.402344 30.722656 69.949219 30.859375 68.261719 C 31.144531 68.550781 31.40625 68.695312 31.484375 68.910156 C 32.679688 72.125 33.402344 75.433594 33.03125 78.878906 C 32.871094 80.359375 32.511719 81.820312 32.179688 83.273438 C 31.867188 84.660156 32.847656 85.996094 34.265625 86.019531 C 35.410156 86.035156 36.171875 85.398438 36.570312 84.046875 C 38.222656 78.480469 37.660156 73.023438 35.738281 67.636719 C 35.648438 67.386719 35.523438 67.132812 35.519531 66.878906 C 35.503906 64.011719 35.511719 61.140625 35.511719 58.15625 C 35.9375 58.417969 36.246094 58.621094 36.566406 58.804688 C 38.671875 60.003906 40.585938 59.628906 42.046875 57.707031 C 42.996094 56.457031 43.53125 55.011719 43.9375 53.511719 C 43.972656 53.371094 43.964844 53.207031 43.9375 53.058594 " fill-opacity="1" fill-rule="nonzero"/></g><g clip-path="url(#1b640b9dba)"><path fill="#000000" d="M 69.242188 82.234375 C 68.261719 80.96875 67.1875 79.726562 66.445312 78.324219 C 65.078125 75.734375 64.929688 73.042969 66.300781 70.328125 C 66.550781 69.832031 66.558594 69.011719 66.332031 68.5 C 65.292969 66.195312 64.238281 63.882812 62.976562 61.699219 C 61.921875 59.875 60.566406 58.226562 59.347656 56.503906 C 61.558594 55.09375 62.933594 55.699219 63.636719 57.867188 C 63.941406 58.804688 64.101562 59.789062 64.289062 60.757812 C 64.433594 61.511719 65.054688 62.074219 65.753906 62.015625 C 66.441406 61.957031 67.101562 61.320312 67.023438 60.636719 C 66.796875 58.613281 66.417969 56.613281 65.15625 54.929688 C 64.183594 53.625 62.867188 52.929688 61.214844 53.046875 C 59.289062 53.1875 57.648438 54.023438 56.308594 55.378906 C 54.941406 56.757812 53.660156 58.222656 52.324219 59.632812 C 51.46875 60.539062 50.503906 61.304688 49.285156 61.683594 C 48.210938 62.015625 47.203125 61.859375 46.402344 61.058594 C 45.851562 60.503906 45.398438 59.839844 44.941406 59.195312 C 44.457031 58.507812 43.734375 58.273438 43.054688 58.652344 C 42.394531 59.027344 42.136719 59.84375 42.585938 60.542969 C 43.105469 61.351562 43.660156 62.167969 44.332031 62.855469 C 45.816406 64.371094 47.675781 64.96875 49.71875 64.371094 C 50.960938 64.007812 52.101562 63.292969 53.359375 62.703125 C 54.925781 64.539062 56.316406 66.6875 57.332031 68.855469 C 56.539062 69.722656 55.789062 70.472656 55.121094 71.289062 C 51.578125 75.601562 52.199219 80.816406 55.027344 85.171875 C 55.515625 85.925781 56.328125 86.160156 57.191406 85.980469 C 58.078125 85.792969 58.65625 85.226562 58.894531 84.320312 C 59.078125 83.617188 58.835938 83.027344 58.5 82.441406 C 57.625 80.902344 57.027344 79.296875 57.117188 77.480469 C 57.21875 75.410156 59.214844 72.632812 61.035156 72.042969 C 61.035156 73.21875 60.925781 74.417969 61.054688 75.589844 C 61.488281 79.460938 63.4375 82.59375 66.097656 85.324219 C 66.4375 85.675781 66.992188 85.910156 67.484375 85.988281 C 68.429688 86.144531 69.292969 85.597656 69.691406 84.753906 C 70.070312 83.945312 69.84375 83.011719 69.242188 82.234375 " fill-opacity="1" fill-rule="nonzero"/></g><path fill="#000000" d="M 27.941406 47.886719 L 31.8125 38.53125 L 35.683594 47.886719 Z M 27.941406 47.886719 " fill-opacity="1" fill-rule="nonzero"/><g clip-path="url(#e4473697e5)"><path fill="#000000" d="M 90.09375 49.546875 L 82.351562 49.546875 L 86.222656 40.195312 Z M 90.09375 49.546875 " fill-opacity="1" fill-rule="nonzero"/></g><path fill="#000000" d="M 28.363281 48.417969 C 28.257812 48.757812 28.203125 49.121094 28.203125 49.496094 C 28.199219 51.636719 29.878906 53.328125 32.011719 53.328125 C 34.113281 53.324219 35.796875 51.65625 35.804688 49.558594 C 35.808594 49.15625 35.75 48.777344 35.644531 48.417969 L 28.363281 48.417969 " fill-opacity="1" fill-rule="nonzero"/><path fill="#000000" d="M 60.59375 37.519531 C 58.519531 33.792969 56.726562 29.953125 55.695312 25.789062 C 55.558594 25.238281 55.332031 24.714844 55.101562 24.1875 C 54.578125 23.015625 54.082031 23.988281 54.046875 24.058594 C 53.886719 24.734375 54.074219 25.425781 54.292969 26.09375 C 55.726562 30.453125 58.054688 34.339844 60.683594 38.0625 C 60.734375 38.136719 60.816406 38.191406 60.882812 38.257812 C 60.839844 37.972656 60.71875 37.746094 60.59375 37.519531 " fill-opacity="1" fill-rule="nonzero"/><path fill="#000000" d="M 67.214844 48.238281 C 63.246094 45.3125 58.917969 43.171875 54.019531 42.347656 C 53.359375 42.234375 52.660156 42.335938 51.96875 42.429688 C 51.917969 42.4375 51.863281 42.441406 51.8125 42.449219 C 51.644531 42.492188 51.566406 42.605469 51.550781 42.625 C 51.464844 42.820312 51.449219 43.0625 51.671875 43.324219 C 51.679688 43.332031 51.789062 43.417969 51.921875 43.453125 C 52.390625 43.582031 52.863281 43.695312 53.335938 43.726562 C 56.628906 43.949219 59.757812 44.789062 62.746094 46.140625 C 64.304688 46.84375 65.8125 47.65625 67.339844 48.417969 C 67.355469 48.390625 67.371094 48.367188 67.386719 48.339844 C 67.332031 48.308594 67.269531 48.277344 67.214844 48.238281 " fill-opacity="1" fill-rule="nonzero"/></svg>