<svg xmlns="http://www.w3.org/2000/svg" xmlns:xlink="http://www.w3.org/1999/xlink" width="150" zoomAndPan="magnify" viewBox="0 0 112.5 112.499997" height="150" preserveAspectRatio="xMidYMid meet" version="1.0"><defs><clipPath id="5cddd353aa"><path d="M 0 0 L 112.003906 0 L 112.003906 112.003906 L 0 112.003906 Z M 0 0 " clip-rule="nonzero"/></clipPath><clipPath id="b46ad16a0b"><path d="M 5.476562 5.476562 L 106.527344 5.476562 L 106.527344 106.527344 L 5.476562 106.527344 Z M 5.476562 5.476562 " clip-rule="nonzero"/></clipPath><clipPath id="92c03bf325"><path d="M 56 5.476562 C 28.097656 5.476562 5.476562 28.097656 5.476562 56 C 5.476562 83.90625 28.097656 106.527344 56 106.527344 C 83.90625 106.527344 106.527344 83.90625 106.527344 56 C 106.527344 28.097656 83.90625 5.476562 56 5.476562 Z M 56 5.476562 " clip-rule="nonzero"/></clipPath><clipPath id="f08aea661b"><path d="M 46 82 L 53 82 L 53 86.179688 L 46 86.179688 Z M 46 82 " clip-rule="nonzero"/></clipPath><clipPath id="b70b62a8a2"><path d="M 25.699219 28 L 30 28 L 30 86.179688 L 25.699219 86.179688 Z M 25.699219 28 " clip-rule="nonzero"/></clipPath><clipPath id="519ac74364"><path d="M 69 82 L 75 82 L 75 86.179688 L 69 86.179688 Z M 69 82 " clip-rule="nonzero"/></clipPath><clipPath id="25ac010e14"><path d="M 54 82 L 60 82 L 60 86.179688 L 54 86.179688 Z M 54 82 " clip-rule="nonzero"/></clipPath><clipPath id="cf0f984e05"><path d="M 61 82 L 68 82 L 68 86.179688 L 61 86.179688 Z M 61 82 " clip-rule="nonzero"/></clipPath><clipPath id="f65404ad8b"><path d="M 69 25.699219 L 75 25.699219 L 75 32 L 69 32 Z M 69 25.699219 " clip-rule="nonzero"/></clipPath><clipPath id="8586dcff0a"><path d="M 44 25.699219 L 52 25.699219 L 52 33 L 44 33 Z M 44 25.699219 " clip-rule="nonzero"/></clipPath><clipPath id="e4d44ed9d3"><path d="M 82 25.699219 L 86.179688 25.699219 L 86.179688 30 L 82 30 Z M 82 25.699219 " clip-rule="nonzero"/></clipPath></defs><g clip-path="url(#5cddd353aa)"><path fill="#ffffff" d="M 0 0 L 112.003906 0 L 112.003906 112.003906 L 0 112.003906 Z M 0 0 " fill-opacity="1" fill-rule="nonzero"/><path fill="#ffffff" d="M 0 0 L 112.003906 0 L 112.003906 112.003906 L 0 112.003906 Z M 0 0 " fill-opacity="1" fill-rule="nonzero"/></g><g clip-path="url(#b46ad16a0b)"><g clip-path="url(#92c03bf325)"><path fill="#ffde59" d="M 5.476562 5.476562 L 106.527344 5.476562 L 106.527344 106.527344 L 5.476562 106.527344 Z M 5.476562 5.476562 " fill-opacity="1" fill-rule="nonzero"/></g></g><g clip-path="url(#f08aea661b)"><path fill="#100f0d" d="M 46.488281 82.058594 L 47.175781 86.179688 L 52.3125 86.179688 L 51.984375 82.058594 L 46.488281 82.058594 " fill-opacity="1" fill-rule="nonzero"/></g><path fill="#100f0d" d="M 50.867188 68.074219 C 48.441406 67.019531 46.230469 65.480469 44.390625 63.515625 L 43.398438 63.515625 L 44.941406 72.789062 L 51.242188 72.789062 L 50.867188 68.074219 " fill-opacity="1" fill-rule="nonzero"/><path fill="#100f0d" d="M 52.054688 55.277344 L 52.5625 54.769531 C 49.386719 51.867188 45.453125 49.953125 41.171875 49.25 C 41.160156 49.539062 41.152344 49.832031 41.152344 50.125 C 41.152344 51.886719 41.410156 53.613281 41.921875 55.277344 L 52.054688 55.277344 " fill-opacity="1" fill-rule="nonzero"/><g clip-path="url(#b70b62a8a2)"><path fill="#100f0d" d="M 25.699219 86.179688 L 29.820312 86.179688 L 29.820312 28.492188 L 25.699219 28.492188 L 25.699219 86.179688 " fill-opacity="1" fill-rule="nonzero"/></g><path fill="#100f0d" d="M 51.40625 74.847656 L 45.285156 74.847656 L 46.144531 80 L 51.820312 80 L 51.40625 74.847656 " fill-opacity="1" fill-rule="nonzero"/><path fill="#100f0d" d="M 47.382812 63.515625 C 48.398438 64.371094 49.503906 65.105469 50.675781 65.707031 L 50.5 63.515625 L 47.382812 63.515625 " fill-opacity="1" fill-rule="nonzero"/><path fill="#100f0d" d="M 31.878906 71.757812 L 35.15625 71.757812 L 36.804688 63.515625 L 31.878906 63.515625 L 31.878906 71.757812 " fill-opacity="1" fill-rule="nonzero"/><path fill="#100f0d" d="M 75.40625 55.277344 C 75.628906 54.546875 75.804688 53.804688 75.933594 53.050781 C 71.230469 52.296875 66.816406 50.160156 63.304688 46.941406 L 60.121094 50.125 L 65.269531 55.277344 L 75.40625 55.277344 " fill-opacity="1" fill-rule="nonzero"/><path fill="#100f0d" d="M 55.476562 54.769531 C 55.628906 54.933594 55.78125 55.105469 55.929688 55.277344 L 62.355469 55.277344 L 58.664062 51.582031 L 55.476562 54.769531 " fill-opacity="1" fill-rule="nonzero"/><path fill="#100f0d" d="M 70.289062 37.042969 C 67.195312 34.289062 63.121094 32.613281 58.664062 32.613281 C 58.371094 32.613281 58.078125 32.621094 57.789062 32.636719 C 58.492188 36.871094 60.417969 40.847656 63.308594 44.023438 L 70.289062 37.042969 " fill-opacity="1" fill-rule="nonzero"/><path fill="#100f0d" d="M 58.664062 48.667969 L 61.847656 45.484375 C 58.628906 41.972656 56.492188 37.558594 55.738281 32.859375 C 52.433594 33.417969 49.4375 34.90625 47.035156 37.042969 L 58.664062 48.667969 " fill-opacity="1" fill-rule="nonzero"/><path fill="#100f0d" d="M 57.207031 50.125 L 45.578125 38.5 C 43.441406 40.902344 41.957031 43.894531 41.398438 47.199219 C 46.148438 47.957031 50.511719 50.078125 54.019531 53.3125 L 57.207031 50.125 " fill-opacity="1" fill-rule="nonzero"/><path fill="#100f0d" d="M 76.175781 50.125 C 76.175781 45.667969 74.5 41.59375 71.746094 38.5 L 64.765625 45.480469 C 67.941406 48.371094 71.917969 50.296875 76.152344 51 C 76.167969 50.710938 76.175781 50.417969 76.175781 50.125 " fill-opacity="1" fill-rule="nonzero"/><path fill="#100f0d" d="M 69.625 80 L 75.300781 80 L 76.160156 74.847656 L 70.039062 74.847656 L 69.625 80 " fill-opacity="1" fill-rule="nonzero"/><g clip-path="url(#519ac74364)"><path fill="#100f0d" d="M 69.132812 86.179688 L 74.273438 86.179688 L 74.960938 82.058594 L 69.460938 82.058594 L 69.132812 86.179688 " fill-opacity="1" fill-rule="nonzero"/></g><path fill="#100f0d" d="M 61.753906 67.359375 C 64.296875 66.902344 66.707031 65.890625 68.808594 64.394531 L 68.878906 63.515625 L 61.753906 63.515625 L 61.753906 67.359375 " fill-opacity="1" fill-rule="nonzero"/><path fill="#100f0d" d="M 70.789062 65.484375 L 70.203125 72.789062 L 76.503906 72.789062 L 78.050781 63.515625 L 72.9375 63.515625 C 72.265625 64.230469 71.546875 64.886719 70.789062 65.484375 " fill-opacity="1" fill-rule="nonzero"/><path fill="#100f0d" d="M 81.324219 57.335938 L 31.878906 57.335938 L 31.878906 61.457031 L 81.324219 61.457031 C 82.460938 61.457031 83.386719 60.53125 83.386719 59.398438 C 83.386719 58.261719 82.460938 57.335938 81.324219 57.335938 " fill-opacity="1" fill-rule="nonzero"/><path fill="#100f0d" d="M 61.753906 72.789062 L 68.136719 72.789062 L 68.601562 66.984375 C 66.5 68.222656 64.175781 69.0625 61.753906 69.453125 L 61.753906 72.789062 " fill-opacity="1" fill-rule="nonzero"/><path fill="#100f0d" d="M 61.753906 80 L 67.558594 80 L 67.972656 74.847656 L 61.753906 74.847656 L 61.753906 80 " fill-opacity="1" fill-rule="nonzero"/><path fill="#100f0d" d="M 52.816406 66.628906 C 54.675781 67.289062 56.652344 67.636719 58.664062 67.636719 C 59.007812 67.636719 59.351562 67.625 59.691406 67.605469 L 59.691406 63.515625 L 52.566406 63.515625 L 52.816406 66.628906 " fill-opacity="1" fill-rule="nonzero"/><g clip-path="url(#25ac010e14)"><path fill="#100f0d" d="M 54.382812 86.179688 L 59.691406 86.179688 L 59.691406 82.058594 L 54.050781 82.058594 L 54.382812 86.179688 " fill-opacity="1" fill-rule="nonzero"/></g><path fill="#100f0d" d="M 52.996094 68.855469 L 53.308594 72.789062 L 59.691406 72.789062 L 59.691406 69.671875 C 59.351562 69.6875 59.007812 69.699219 58.664062 69.699219 C 56.726562 69.699219 54.816406 69.410156 52.996094 68.855469 " fill-opacity="1" fill-rule="nonzero"/><path fill="#100f0d" d="M 53.886719 80 L 59.691406 80 L 59.691406 74.847656 L 53.476562 74.847656 L 53.886719 80 " fill-opacity="1" fill-rule="nonzero"/><g clip-path="url(#cf0f984e05)"><path fill="#100f0d" d="M 61.753906 86.179688 L 67.066406 86.179688 L 67.394531 82.058594 L 61.753906 82.058594 L 61.753906 86.179688 " fill-opacity="1" fill-rule="nonzero"/></g><path fill="#100f0d" d="M 78.539062 42.1875 L 79.992188 43.644531 L 85.144531 38.492188 L 83.6875 37.035156 L 78.539062 42.1875 " fill-opacity="1" fill-rule="nonzero"/><path fill="#100f0d" d="M 82.054688 31.28125 L 80.597656 29.824219 L 75.445312 34.976562 L 76.902344 36.433594 L 82.054688 31.28125 " fill-opacity="1" fill-rule="nonzero"/><g clip-path="url(#f65404ad8b)"><path fill="#100f0d" d="M 74.84375 27.160156 L 73.386719 25.703125 L 69.265625 29.824219 L 70.722656 31.28125 L 74.84375 27.160156 " fill-opacity="1" fill-rule="nonzero"/></g><g clip-path="url(#8586dcff0a)"><path fill="#100f0d" d="M 51.152344 27.160156 L 49.695312 25.703125 L 44.542969 30.855469 L 46 32.3125 L 51.152344 27.160156 " fill-opacity="1" fill-rule="nonzero"/></g><g clip-path="url(#e4d44ed9d3)"><path fill="#100f0d" d="M 86.175781 27.160156 L 84.71875 25.703125 L 82.65625 27.765625 L 84.113281 29.222656 L 86.175781 27.160156 " fill-opacity="1" fill-rule="nonzero"/></g></svg>