<svg xmlns="http://www.w3.org/2000/svg" xmlns:xlink="http://www.w3.org/1999/xlink" width="150" zoomAndPan="magnify" viewBox="0 0 112.5 112.499997" height="150" preserveAspectRatio="xMidYMid meet" version="1.0"><defs><clipPath id="18a73f2577"><path d="M 0 0 L 112.003906 0 L 112.003906 112.003906 L 0 112.003906 Z M 0 0 " clip-rule="nonzero"/></clipPath><clipPath id="323651535c"><path d="M 5.476562 5.476562 L 106.527344 5.476562 L 106.527344 106.527344 L 5.476562 106.527344 Z M 5.476562 5.476562 " clip-rule="nonzero"/></clipPath><clipPath id="c7e5aba0bc"><path d="M 56 5.476562 C 28.097656 5.476562 5.476562 28.097656 5.476562 56 C 5.476562 83.90625 28.097656 106.527344 56 106.527344 C 83.90625 106.527344 106.527344 83.90625 106.527344 56 C 106.527344 28.097656 83.90625 5.476562 56 5.476562 Z M 56 5.476562 " clip-rule="nonzero"/></clipPath><clipPath id="7fa73fb40f"><path d="M 29.695312 61.308594 L 82.316406 61.308594 L 82.316406 80.53125 L 29.695312 80.53125 Z M 29.695312 61.308594 " clip-rule="nonzero"/></clipPath><clipPath id="ea9f873ec4"><path d="M 71 31.25 L 78 31.25 L 78 38 L 71 38 Z M 71 31.25 " clip-rule="nonzero"/></clipPath><clipPath id="9d6feeeb75"><path d="M 72.855469 37.757812 L 91.613281 37.757812 L 91.613281 80.53125 L 72.855469 80.53125 Z M 72.855469 37.757812 " clip-rule="nonzero"/></clipPath><clipPath id="a7fe4408f8"><path d="M 87.144531 48.070312 L 93.191406 48.070312 L 93.191406 54.445312 L 87.144531 54.445312 Z M 87.144531 48.070312 " clip-rule="nonzero"/></clipPath><clipPath id="cefa136b67"><path d="M 34 31.25 L 41 31.25 L 41 38 L 34 38 Z M 34 31.25 " clip-rule="nonzero"/></clipPath><clipPath id="ddd13dfb59"><path d="M 20.363281 37.757812 L 39.121094 37.757812 L 39.121094 80.53125 L 20.363281 80.53125 Z M 20.363281 37.757812 " clip-rule="nonzero"/></clipPath><clipPath id="af8fb490df"><path d="M 18.523438 48 L 25 48 L 25 55 L 18.523438 55 Z M 18.523438 48 " clip-rule="nonzero"/></clipPath></defs><g clip-path="url(#18a73f2577)"><path fill="#ffffff" d="M 0 0 L 112.003906 0 L 112.003906 112.003906 L 0 112.003906 Z M 0 0 " fill-opacity="1" fill-rule="nonzero"/><path fill="#ffffff" d="M 0 0 L 112.003906 0 L 112.003906 112.003906 L 0 112.003906 Z M 0 0 " fill-opacity="1" fill-rule="nonzero"/></g><g clip-path="url(#323651535c)"><g clip-path="url(#c7e5aba0bc)"><path fill="#ffde59" d="M 5.476562 5.476562 L 106.527344 5.476562 L 106.527344 106.527344 L 5.476562 106.527344 Z M 5.476562 5.476562 " fill-opacity="1" fill-rule="nonzero"/></g></g><g clip-path="url(#7fa73fb40f)"><path fill="#000000" d="M 33.703125 78.164062 L 45.316406 63.894531 L 66.679688 63.894531 L 78.296875 78.164062 Z M 68.292969 61.792969 C 68.046875 61.492188 67.679688 61.316406 67.292969 61.316406 L 44.703125 61.316406 C 44.316406 61.316406 43.949219 61.492188 43.703125 61.792969 L 29.988281 78.636719 C 29.675781 79.023438 29.613281 79.554688 29.824219 80.003906 C 30.039062 80.453125 30.492188 80.742188 30.988281 80.742188 L 81.007812 80.742188 C 81.503906 80.742188 81.957031 80.453125 82.171875 80.003906 C 82.386719 79.554688 82.320312 79.023438 82.007812 78.636719 L 68.292969 61.792969 " fill-opacity="1" fill-rule="nonzero"/></g><g clip-path="url(#ea9f873ec4)"><path fill="#000000" d="M 74.175781 37.574219 C 75.921875 37.574219 77.335938 36.160156 77.335938 34.414062 C 77.335938 32.667969 75.921875 31.253906 74.175781 31.253906 C 72.429688 31.253906 71.015625 32.667969 71.015625 34.414062 C 71.015625 36.160156 72.429688 37.574219 74.175781 37.574219 " fill-opacity="1" fill-rule="nonzero"/></g><g clip-path="url(#9d6feeeb75)"><path fill="#000000" d="M 90.480469 54.617188 C 89.839844 54.53125 89.238281 54.933594 89.066406 55.558594 C 88.71875 56.84375 87.367188 60.367188 85.347656 61.210938 C 84.601562 61.523438 83.792969 61.421875 82.878906 60.902344 C 82.101562 60.464844 80.03125 58.441406 77.621094 49.191406 C 76.25 43.914062 75.457031 38.898438 75.449219 38.847656 C 75.449219 38.839844 75.445312 38.832031 75.445312 38.824219 C 75.441406 38.796875 75.433594 38.773438 75.429688 38.75 C 75.425781 38.730469 75.421875 38.714844 75.417969 38.695312 C 75.410156 38.671875 75.402344 38.648438 75.394531 38.625 C 75.386719 38.609375 75.382812 38.589844 75.375 38.574219 C 75.367188 38.554688 75.355469 38.53125 75.347656 38.511719 C 75.339844 38.492188 75.332031 38.476562 75.320312 38.457031 C 75.3125 38.4375 75.300781 38.421875 75.292969 38.402344 C 75.28125 38.382812 75.269531 38.367188 75.257812 38.347656 C 75.246094 38.332031 75.234375 38.316406 75.226562 38.300781 C 75.210938 38.28125 75.199219 38.261719 75.183594 38.246094 C 75.171875 38.230469 75.160156 38.214844 75.148438 38.203125 C 75.132812 38.1875 75.117188 38.167969 75.101562 38.152344 C 75.089844 38.140625 75.074219 38.125 75.0625 38.113281 C 75.046875 38.097656 75.03125 38.082031 75.015625 38.070312 C 75 38.054688 74.980469 38.042969 74.964844 38.03125 C 74.949219 38.019531 74.933594 38.007812 74.917969 37.996094 C 74.898438 37.980469 74.882812 37.96875 74.863281 37.957031 C 74.847656 37.949219 74.832031 37.9375 74.8125 37.929688 C 74.792969 37.917969 74.773438 37.90625 74.753906 37.898438 C 74.738281 37.886719 74.71875 37.878906 74.703125 37.871094 C 74.683594 37.863281 74.664062 37.855469 74.644531 37.847656 C 74.625 37.839844 74.605469 37.832031 74.582031 37.824219 C 74.566406 37.820312 74.546875 37.8125 74.527344 37.808594 C 74.503906 37.800781 74.480469 37.796875 74.460938 37.792969 C 74.441406 37.789062 74.425781 37.785156 74.40625 37.78125 C 74.382812 37.777344 74.355469 37.773438 74.332031 37.769531 C 74.316406 37.765625 74.296875 37.765625 74.28125 37.765625 C 74.253906 37.761719 74.226562 37.761719 74.203125 37.761719 C 74.195312 37.761719 74.183594 37.757812 74.175781 37.757812 C 74.167969 37.757812 74.15625 37.761719 74.144531 37.761719 C 74.125 37.761719 74.101562 37.761719 74.078125 37.765625 C 74.054688 37.765625 74.03125 37.769531 74.007812 37.769531 C 73.996094 37.773438 73.988281 37.773438 73.976562 37.773438 C 73.96875 37.777344 73.960938 37.777344 73.953125 37.78125 C 73.925781 37.785156 73.902344 37.789062 73.875 37.796875 C 73.859375 37.800781 73.84375 37.804688 73.824219 37.808594 C 73.800781 37.816406 73.777344 37.824219 73.753906 37.832031 C 73.738281 37.835938 73.71875 37.84375 73.703125 37.851562 C 73.679688 37.859375 73.660156 37.867188 73.640625 37.878906 C 73.621094 37.886719 73.601562 37.894531 73.585938 37.902344 C 73.566406 37.914062 73.546875 37.921875 73.53125 37.933594 C 73.511719 37.945312 73.492188 37.957031 73.476562 37.96875 C 73.460938 37.976562 73.441406 37.988281 73.429688 38 C 73.410156 38.011719 73.390625 38.027344 73.375 38.039062 C 73.359375 38.050781 73.34375 38.066406 73.328125 38.078125 C 73.3125 38.09375 73.296875 38.105469 73.28125 38.121094 C 73.265625 38.136719 73.253906 38.148438 73.238281 38.164062 C 73.226562 38.179688 73.210938 38.195312 73.199219 38.210938 C 73.183594 38.226562 73.171875 38.242188 73.15625 38.261719 C 73.144531 38.277344 73.132812 38.292969 73.125 38.308594 C 73.109375 38.324219 73.097656 38.34375 73.085938 38.363281 C 73.074219 38.378906 73.066406 38.394531 73.058594 38.410156 C 73.046875 38.429688 73.035156 38.453125 73.023438 38.472656 C 73.015625 38.488281 73.007812 38.503906 73 38.523438 C 72.992188 38.542969 72.984375 38.5625 72.972656 38.585938 C 72.96875 38.601562 72.960938 38.621094 72.953125 38.640625 C 72.949219 38.660156 72.941406 38.679688 72.9375 38.699219 C 72.929688 38.722656 72.925781 38.742188 72.917969 38.765625 C 72.914062 38.78125 72.910156 38.800781 72.910156 38.820312 C 72.902344 38.84375 72.898438 38.867188 72.898438 38.890625 C 72.894531 38.910156 72.894531 38.929688 72.890625 38.945312 C 72.890625 38.972656 72.890625 38.996094 72.886719 39.023438 C 72.886719 39.03125 72.886719 39.039062 72.886719 39.046875 L 72.886719 62.605469 C 72.886719 63.316406 73.464844 63.894531 74.175781 63.894531 C 74.890625 63.894531 75.464844 63.316406 75.464844 62.605469 L 75.464844 51.101562 C 77.347656 57.929688 79.363281 61.878906 81.609375 63.148438 C 83.644531 64.300781 85.308594 64.023438 86.347656 63.589844 C 87.417969 63.140625 88.304688 62.34375 89.023438 61.433594 L 89.023438 79.453125 C 89.023438 80.164062 89.597656 80.742188 90.3125 80.742188 C 91.023438 80.742188 91.601562 80.164062 91.601562 79.453125 L 91.601562 55.894531 C 91.601562 55.25 91.121094 54.703125 90.480469 54.617188 " fill-opacity="1" fill-rule="nonzero"/></g><g clip-path="url(#a7fe4408f8)"><path fill="#000000" d="M 90.3125 48.097656 C 88.566406 48.097656 87.148438 49.515625 87.148438 51.261719 C 87.148438 53.007812 88.566406 54.421875 90.3125 54.421875 C 92.058594 54.421875 93.472656 53.007812 93.472656 51.261719 C 93.472656 49.515625 92.058594 48.097656 90.3125 48.097656 " fill-opacity="1" fill-rule="nonzero"/></g><g clip-path="url(#cefa136b67)"><path fill="#000000" d="M 37.820312 37.574219 C 39.566406 37.574219 40.980469 36.160156 40.980469 34.414062 C 40.980469 32.667969 39.566406 31.253906 37.820312 31.253906 C 36.074219 31.253906 34.660156 32.667969 34.660156 34.414062 C 34.660156 36.160156 36.074219 37.574219 37.820312 37.574219 " fill-opacity="1" fill-rule="nonzero"/></g><g clip-path="url(#ddd13dfb59)"><path fill="#000000" d="M 36.53125 51.101562 L 36.53125 62.605469 C 36.53125 63.316406 37.109375 63.894531 37.820312 63.894531 C 38.53125 63.894531 39.109375 63.316406 39.109375 62.605469 L 39.109375 39.046875 C 39.109375 39.039062 39.109375 39.03125 39.109375 39.023438 C 39.109375 38.996094 39.105469 38.972656 39.105469 38.945312 C 39.105469 38.929688 39.101562 38.910156 39.101562 38.890625 C 39.097656 38.867188 39.09375 38.84375 39.089844 38.820312 C 39.085938 38.800781 39.082031 38.78125 39.078125 38.765625 C 39.074219 38.742188 39.066406 38.722656 39.0625 38.699219 C 39.054688 38.679688 39.050781 38.660156 39.042969 38.640625 C 39.035156 38.621094 39.03125 38.601562 39.023438 38.585938 C 39.015625 38.5625 39.007812 38.542969 38.996094 38.523438 C 38.988281 38.503906 38.980469 38.488281 38.972656 38.472656 C 38.960938 38.453125 38.953125 38.429688 38.941406 38.410156 C 38.929688 38.394531 38.921875 38.378906 38.910156 38.363281 C 38.898438 38.34375 38.886719 38.324219 38.875 38.308594 C 38.863281 38.292969 38.851562 38.277344 38.839844 38.261719 C 38.828125 38.242188 38.8125 38.226562 38.800781 38.210938 C 38.785156 38.195312 38.773438 38.179688 38.757812 38.164062 C 38.742188 38.148438 38.730469 38.136719 38.714844 38.121094 C 38.699219 38.105469 38.683594 38.089844 38.667969 38.078125 C 38.652344 38.066406 38.636719 38.050781 38.625 38.039062 C 38.605469 38.027344 38.585938 38.011719 38.570312 38 C 38.554688 37.988281 38.539062 37.976562 38.523438 37.96875 C 38.503906 37.957031 38.484375 37.945312 38.464844 37.933594 C 38.449219 37.921875 38.429688 37.914062 38.414062 37.902344 C 38.394531 37.894531 38.375 37.886719 38.355469 37.878906 C 38.335938 37.867188 38.316406 37.859375 38.296875 37.851562 C 38.277344 37.84375 38.261719 37.835938 38.242188 37.832031 C 38.21875 37.824219 38.195312 37.816406 38.171875 37.808594 C 38.15625 37.804688 38.136719 37.800781 38.121094 37.796875 C 38.097656 37.789062 38.070312 37.785156 38.046875 37.78125 C 38.035156 37.777344 38.027344 37.777344 38.019531 37.773438 C 38.011719 37.773438 38 37.773438 37.988281 37.773438 C 37.96875 37.769531 37.945312 37.765625 37.921875 37.765625 C 37.898438 37.761719 37.875 37.761719 37.851562 37.761719 C 37.839844 37.761719 37.832031 37.757812 37.820312 37.757812 C 37.8125 37.757812 37.800781 37.761719 37.792969 37.761719 C 37.769531 37.761719 37.746094 37.761719 37.71875 37.765625 C 37.699219 37.765625 37.683594 37.765625 37.664062 37.769531 C 37.640625 37.773438 37.617188 37.777344 37.59375 37.78125 C 37.574219 37.785156 37.554688 37.789062 37.535156 37.792969 C 37.515625 37.796875 37.496094 37.800781 37.476562 37.808594 C 37.453125 37.8125 37.429688 37.820312 37.410156 37.828125 C 37.394531 37.832031 37.378906 37.839844 37.359375 37.84375 C 37.335938 37.855469 37.3125 37.863281 37.289062 37.875 C 37.277344 37.878906 37.261719 37.886719 37.25 37.894531 C 37.226562 37.90625 37.203125 37.917969 37.179688 37.929688 C 37.167969 37.9375 37.152344 37.945312 37.140625 37.953125 C 37.121094 37.96875 37.097656 37.980469 37.078125 37.996094 C 37.0625 38.007812 37.050781 38.015625 37.039062 38.027344 C 37.019531 38.039062 37 38.054688 36.980469 38.070312 C 36.964844 38.082031 36.953125 38.09375 36.941406 38.109375 C 36.925781 38.125 36.90625 38.140625 36.890625 38.15625 C 36.878906 38.167969 36.867188 38.183594 36.851562 38.199219 C 36.839844 38.214844 36.824219 38.230469 36.8125 38.25 C 36.796875 38.265625 36.785156 38.28125 36.773438 38.296875 C 36.761719 38.3125 36.75 38.332031 36.738281 38.347656 C 36.726562 38.367188 36.71875 38.382812 36.707031 38.402344 C 36.695312 38.421875 36.683594 38.4375 36.675781 38.457031 C 36.667969 38.476562 36.65625 38.492188 36.648438 38.511719 C 36.640625 38.53125 36.632812 38.554688 36.621094 38.574219 C 36.617188 38.589844 36.609375 38.609375 36.601562 38.625 C 36.59375 38.648438 36.585938 38.671875 36.582031 38.695312 C 36.578125 38.714844 36.570312 38.730469 36.566406 38.75 C 36.5625 38.773438 36.558594 38.796875 36.550781 38.824219 C 36.550781 38.832031 36.546875 38.839844 36.546875 38.847656 C 36.539062 38.898438 35.75 43.898438 34.378906 49.171875 C 31.96875 58.4375 29.898438 60.464844 29.117188 60.902344 C 28.203125 61.421875 27.394531 61.523438 26.648438 61.210938 C 24.628906 60.367188 23.28125 56.84375 22.929688 55.558594 C 22.761719 54.933594 22.15625 54.53125 21.515625 54.617188 C 20.875 54.703125 20.394531 55.246094 20.394531 55.894531 L 20.394531 79.453125 C 20.394531 80.164062 20.972656 80.742188 21.6875 80.742188 C 22.398438 80.742188 22.976562 80.164062 22.976562 79.453125 L 22.976562 61.433594 C 23.695312 62.34375 24.578125 63.140625 25.648438 63.589844 C 26.6875 64.023438 28.351562 64.300781 30.386719 63.148438 C 32.632812 61.878906 34.648438 57.929688 36.53125 51.101562 " fill-opacity="1" fill-rule="nonzero"/></g><g clip-path="url(#af8fb490df)"><path fill="#000000" d="M 24.847656 51.261719 C 24.847656 49.515625 23.429688 48.097656 21.6875 48.097656 C 19.941406 48.097656 18.523438 49.515625 18.523438 51.261719 C 18.523438 53.007812 19.941406 54.421875 21.6875 54.421875 C 23.429688 54.421875 24.847656 53.007812 24.847656 51.261719 " fill-opacity="1" fill-rule="nonzero"/></g><path fill="#000000" d="M 53.386719 45.078125 C 53.804688 45.015625 54.167969 44.75 54.355469 44.371094 L 56 41.042969 L 57.640625 44.371094 C 57.828125 44.75 58.191406 45.015625 58.609375 45.078125 L 62.28125 45.609375 L 59.625 48.199219 C 59.320312 48.496094 59.183594 48.921875 59.253906 49.339844 L 59.882812 52.996094 L 56.597656 51.269531 C 56.222656 51.070312 55.773438 51.070312 55.398438 51.269531 L 52.117188 52.996094 L 52.742188 49.339844 C 52.8125 48.921875 52.675781 48.496094 52.371094 48.199219 L 49.714844 45.609375 Z M 50.085938 49.570312 L 49.132812 55.132812 C 49.050781 55.617188 49.25 56.105469 49.644531 56.394531 C 50.042969 56.683594 50.570312 56.722656 51.003906 56.492188 L 56 53.867188 L 60.992188 56.492188 C 61.183594 56.59375 61.390625 56.640625 61.59375 56.640625 C 61.59375 56.640625 61.597656 56.640625 61.597656 56.640625 C 62.308594 56.640625 62.886719 56.0625 62.886719 55.351562 C 62.886719 55.246094 62.875 55.144531 62.851562 55.046875 L 61.910156 49.570312 L 65.953125 45.632812 C 66.304688 45.289062 66.429688 44.777344 66.277344 44.3125 C 66.125 43.84375 65.722656 43.503906 65.238281 43.433594 L 59.652344 42.621094 L 57.15625 37.5625 C 56.9375 37.121094 56.488281 36.84375 56 36.84375 C 55.507812 36.84375 55.058594 37.121094 54.84375 37.5625 L 52.34375 42.621094 L 46.757812 43.433594 C 46.273438 43.503906 45.871094 43.84375 45.71875 44.3125 C 45.566406 44.777344 45.695312 45.289062 46.042969 45.632812 L 50.085938 49.570312 " fill-opacity="1" fill-rule="nonzero"/></svg>