<svg xmlns="http://www.w3.org/2000/svg" xmlns:xlink="http://www.w3.org/1999/xlink" width="150" zoomAndPan="magnify" viewBox="0 0 112.5 112.499997" height="150" preserveAspectRatio="xMidYMid meet" version="1.0"><defs><clipPath id="bc9e2411f5"><path d="M 0 0 L 112.003906 0 L 112.003906 112.003906 L 0 112.003906 Z M 0 0 " clip-rule="nonzero"/></clipPath><clipPath id="d682e13ffb"><path d="M 5.476562 5.476562 L 106.527344 5.476562 L 106.527344 106.527344 L 5.476562 106.527344 Z M 5.476562 5.476562 " clip-rule="nonzero"/></clipPath><clipPath id="a54f0129cd"><path d="M 56 5.476562 C 28.097656 5.476562 5.476562 28.097656 5.476562 56 C 5.476562 83.90625 28.097656 106.527344 56 106.527344 C 83.90625 106.527344 106.527344 83.90625 106.527344 56 C 106.527344 28.097656 83.90625 5.476562 56 5.476562 Z M 56 5.476562 " clip-rule="nonzero"/></clipPath><clipPath id="323dba664f"><path d="M 31.148438 24.394531 L 81 24.394531 L 81 87.863281 L 31.148438 87.863281 Z M 31.148438 24.394531 " clip-rule="nonzero"/></clipPath></defs><g clip-path="url(#bc9e2411f5)"><path fill="#ffffff" d="M 0 0 L 112.003906 0 L 112.003906 112.003906 L 0 112.003906 Z M 0 0 " fill-opacity="1" fill-rule="nonzero"/><path fill="#ffffff" d="M 0 0 L 112.003906 0 L 112.003906 112.003906 L 0 112.003906 Z M 0 0 " fill-opacity="1" fill-rule="nonzero"/></g><g clip-path="url(#d682e13ffb)"><g clip-path="url(#a54f0129cd)"><path fill="#ffde59" d="M 5.476562 5.476562 L 106.527344 5.476562 L 106.527344 106.527344 L 5.476562 106.527344 Z M 5.476562 5.476562 " fill-opacity="1" fill-rule="nonzero"/></g></g><path fill="#000000" d="M 48.667969 73.875 L 62.859375 73.875 L 62.859375 76.160156 L 48.667969 76.160156 Z M 47.347656 78.796875 L 64.179688 78.796875 C 64.90625 78.796875 65.496094 78.203125 65.496094 77.476562 L 65.496094 72.558594 C 65.496094 71.828125 64.90625 71.238281 64.179688 71.238281 L 47.347656 71.238281 C 46.621094 71.238281 46.03125 71.828125 46.03125 72.558594 L 46.03125 77.476562 C 46.03125 78.203125 46.621094 78.796875 47.347656 78.796875 " fill-opacity="1" fill-rule="nonzero"/><g clip-path="url(#323dba664f)"><path fill="#000000" d="M 78.09375 30.8125 C 77.53125 34.339844 75.863281 41.917969 71.613281 45.027344 C 72.875 41.375 73.71875 36.492188 73.957031 29.832031 C 73.980469 29.832031 74.003906 29.839844 74.027344 29.839844 L 77.257812 29.839844 C 77.601562 29.839844 77.8125 30.023438 77.90625 30.136719 C 78 30.246094 78.148438 30.480469 78.09375 30.8125 Z M 59.691406 53.996094 C 58.058594 54.679688 57 56.273438 57 58.0625 L 57 61.59375 C 57 63.46875 58.527344 64.992188 60.402344 64.992188 L 61.386719 64.992188 C 62.199219 64.992188 62.882812 65.570312 63.042969 66.335938 L 48.484375 66.335938 C 48.644531 65.570312 49.324219 64.992188 50.140625 64.992188 L 51.125 64.992188 C 53 64.992188 54.523438 63.46875 54.523438 61.59375 L 54.523438 57.945312 C 54.523438 56.21875 53.53125 54.636719 51.992188 53.921875 C 46.121094 51.191406 40.386719 46.851562 40.144531 27.09375 L 71.382812 27.09375 C 71.132812 49.230469 64.535156 51.980469 59.691406 53.996094 Z M 67.910156 80.425781 L 43.613281 80.425781 L 43.613281 68.972656 L 67.910156 68.972656 Z M 69.894531 84.902344 L 41.632812 84.902344 L 41.632812 83.0625 L 69.894531 83.0625 Z M 33.917969 30.8125 C 33.867188 30.480469 34.015625 30.246094 34.109375 30.136719 C 34.203125 30.023438 34.414062 29.839844 34.757812 29.839844 L 37.578125 29.839844 C 37.839844 36.332031 38.738281 41.132812 40.058594 44.761719 C 36.0625 41.503906 34.464844 34.246094 33.917969 30.8125 Z M 79.910156 28.425781 C 79.246094 27.648438 78.28125 27.203125 77.257812 27.203125 L 74.027344 27.203125 C 74.023438 27.203125 74.019531 27.203125 74.015625 27.203125 C 74.019531 26.730469 74.027344 26.265625 74.027344 25.777344 C 74.027344 25.046875 73.4375 24.457031 72.707031 24.457031 L 38.820312 24.457031 C 38.089844 24.457031 37.5 25.046875 37.5 25.777344 C 37.5 26.261719 37.507812 26.730469 37.515625 27.203125 L 34.757812 27.203125 C 33.734375 27.203125 32.765625 27.648438 32.105469 28.425781 C 31.441406 29.199219 31.15625 30.222656 31.316406 31.226562 C 32.226562 36.929688 34.800781 46.621094 41.882812 48.667969 C 44.355469 52.828125 47.597656 54.785156 50.878906 56.3125 C 51.492188 56.597656 51.890625 57.238281 51.890625 57.945312 L 51.890625 61.59375 C 51.890625 62.007812 51.539062 62.355469 51.125 62.355469 L 50.140625 62.355469 C 47.871094 62.355469 46.007812 64.113281 45.828125 66.335938 L 42.296875 66.335938 C 41.570312 66.335938 40.980469 66.925781 40.980469 67.652344 L 40.980469 80.425781 L 40.316406 80.425781 C 39.585938 80.425781 38.996094 81.015625 38.996094 81.742188 L 38.996094 86.21875 C 38.996094 86.949219 39.585938 87.539062 40.316406 87.539062 L 71.210938 87.539062 C 71.941406 87.539062 72.53125 86.949219 72.53125 86.21875 L 72.53125 81.742188 C 72.53125 81.015625 71.941406 80.425781 71.210938 80.425781 L 70.546875 80.425781 L 70.546875 67.652344 C 70.546875 66.925781 69.957031 66.335938 69.230469 66.335938 L 65.699219 66.335938 C 65.519531 64.113281 63.65625 62.355469 61.386719 62.355469 L 60.402344 62.355469 C 59.980469 62.355469 59.636719 62.011719 59.636719 61.59375 L 59.636719 58.0625 C 59.636719 57.339844 60.058594 56.703125 60.707031 56.429688 C 64.214844 54.96875 67.546875 53.101562 70 48.703125 C 77.179688 46.738281 79.78125 36.964844 80.699219 31.226562 C 80.859375 30.222656 80.570312 29.199219 79.910156 28.425781 " fill-opacity="1" fill-rule="nonzero"/></g></svg>